<svg xmlns="http://www.w3.org/2000/svg" xmlns:xlink="http://www.w3.org/1999/xlink" width="500" zoomAndPan="magnify" viewBox="0 0 375 303.749993" height="405" preserveAspectRatio="xMidYMid meet" version="1.0"><defs><clipPath id="78f1145db0"><path d="M 0.152344 0 L 374.84375 0 L 374.84375 303.5 L 0.152344 303.5 Z M 0.152344 0 " clip-rule="nonzero"/></clipPath></defs><g clip-path="url(#78f1145db0)"><path fill="#5271ff" d="M 330.238281 0.0898438 L 44.761719 0.0898438 C 43.300781 0.0898438 41.84375 0.164062 40.390625 0.308594 C 38.9375 0.453125 37.492188 0.667969 36.0625 0.953125 C 34.628906 1.238281 33.214844 1.59375 31.816406 2.019531 C 30.417969 2.445312 29.046875 2.9375 27.699219 3.496094 C 26.347656 4.058594 25.03125 4.679688 23.742188 5.371094 C 22.453125 6.058594 21.203125 6.808594 19.988281 7.621094 C 18.777344 8.433594 17.605469 9.300781 16.476562 10.230469 C 15.347656 11.15625 14.265625 12.136719 13.234375 13.167969 C 12.199219 14.199219 11.21875 15.28125 10.292969 16.410156 C 9.367188 17.539062 8.496094 18.710938 7.6875 19.925781 C 6.875 21.140625 6.125 22.390625 5.433594 23.675781 C 4.746094 24.964844 4.121094 26.285156 3.5625 27.632812 C 3.003906 28.980469 2.511719 30.355469 2.085938 31.753906 C 1.660156 33.148438 1.304688 34.5625 1.019531 35.996094 C 0.734375 37.429688 0.519531 38.871094 0.375 40.324219 C 0.230469 41.777344 0.15625 43.234375 0.152344 44.695312 L 0.152344 258.804688 C 0.15625 260.265625 0.230469 261.722656 0.375 263.175781 C 0.519531 264.628906 0.734375 266.070312 1.019531 267.503906 C 1.304688 268.9375 1.660156 270.351562 2.085938 271.75 C 2.511719 273.144531 3.003906 274.519531 3.5625 275.867188 C 4.121094 277.214844 4.746094 278.535156 5.433594 279.824219 C 6.125 281.109375 6.875 282.363281 7.6875 283.574219 C 8.496094 284.789062 9.367188 285.960938 10.292969 287.089844 C 11.21875 288.21875 12.199219 289.300781 13.234375 290.332031 C 14.265625 291.363281 15.347656 292.34375 16.476562 293.273438 C 17.605469 294.199219 18.777344 295.066406 19.988281 295.878906 C 21.203125 296.691406 22.453125 297.441406 23.742188 298.128906 C 25.03125 298.820312 26.347656 299.445312 27.699219 300.003906 C 29.046875 300.5625 30.417969 301.054688 31.816406 301.480469 C 33.214844 301.90625 34.628906 302.261719 36.0625 302.546875 C 37.492188 302.832031 38.9375 303.046875 40.390625 303.191406 C 41.84375 303.335938 43.300781 303.410156 44.761719 303.410156 L 330.238281 303.410156 C 331.699219 303.410156 333.15625 303.335938 334.609375 303.191406 C 336.0625 303.046875 337.507812 302.832031 338.9375 302.546875 C 340.371094 302.261719 341.785156 301.90625 343.183594 301.480469 C 344.582031 301.054688 345.953125 300.5625 347.300781 300.003906 C 348.652344 299.445312 349.96875 298.820312 351.257812 298.128906 C 352.546875 297.441406 353.796875 296.691406 355.011719 295.878906 C 356.222656 295.066406 357.394531 294.199219 358.523438 293.273438 C 359.652344 292.34375 360.734375 291.363281 361.765625 290.332031 C 362.800781 289.300781 363.78125 288.21875 364.707031 287.089844 C 365.632812 285.960938 366.503906 284.789062 367.3125 283.574219 C 368.125 282.363281 368.875 281.109375 369.566406 279.824219 C 370.253906 278.535156 370.878906 277.214844 371.4375 275.867188 C 371.996094 274.519531 372.488281 273.144531 372.914062 271.75 C 373.339844 270.351562 373.695312 268.9375 373.980469 267.503906 C 374.265625 266.070312 374.480469 264.628906 374.625 263.175781 C 374.769531 261.722656 374.84375 260.265625 374.847656 258.804688 L 374.847656 44.695312 C 374.84375 43.234375 374.769531 41.777344 374.625 40.324219 C 374.480469 38.871094 374.265625 37.429688 373.980469 35.996094 C 373.695312 34.5625 373.339844 33.148438 372.914062 31.753906 C 372.488281 30.355469 371.996094 28.980469 371.4375 27.632812 C 370.878906 26.285156 370.253906 24.964844 369.566406 23.675781 C 368.875 22.390625 368.125 21.140625 367.3125 19.925781 C 366.503906 18.710938 365.632812 17.539062 364.707031 16.410156 C 363.78125 15.28125 362.800781 14.199219 361.765625 13.167969 C 360.734375 12.136719 359.652344 11.15625 358.523438 10.230469 C 357.394531 9.300781 356.222656 8.433594 355.011719 7.621094 C 353.796875 6.808594 352.546875 6.058594 351.257812 5.371094 C 349.96875 4.679688 348.652344 4.058594 347.300781 3.496094 C 345.953125 2.9375 344.582031 2.445312 343.183594 2.019531 C 341.785156 1.59375 340.371094 1.238281 338.9375 0.953125 C 337.507812 0.667969 336.0625 0.453125 334.609375 0.308594 C 333.15625 0.164062 331.699219 0.0898438 330.238281 0.0898438 Z M 357.003906 258.804688 C 357.003906 259.679688 356.957031 260.554688 356.871094 261.425781 C 356.785156 262.300781 356.65625 263.164062 356.484375 264.023438 C 356.3125 264.882812 356.097656 265.730469 355.84375 266.570312 C 355.589844 267.410156 355.292969 268.234375 354.957031 269.042969 C 354.621094 269.851562 354.246094 270.644531 353.835938 271.414062 C 353.421875 272.1875 352.972656 272.9375 352.484375 273.667969 C 351.996094 274.394531 351.476562 275.097656 350.917969 275.777344 C 350.363281 276.453125 349.777344 277.101562 349.15625 277.722656 C 348.535156 278.339844 347.886719 278.929688 347.210938 279.484375 C 346.53125 280.039062 345.832031 280.5625 345.101562 281.050781 C 344.375 281.535156 343.621094 281.984375 342.851562 282.398438 C 342.078125 282.8125 341.285156 283.1875 340.476562 283.523438 C 339.667969 283.859375 338.84375 284.15625 338.003906 284.410156 C 337.167969 284.664062 336.316406 284.878906 335.457031 285.050781 C 334.601562 285.222656 333.734375 285.351562 332.863281 285.4375 C 331.988281 285.523438 331.117188 285.566406 330.238281 285.570312 L 44.761719 285.570312 C 43.882812 285.566406 43.011719 285.523438 42.136719 285.4375 C 41.265625 285.351562 40.398438 285.222656 39.542969 285.050781 C 38.683594 284.878906 37.832031 284.664062 36.996094 284.410156 C 36.15625 284.15625 35.332031 283.859375 34.523438 283.523438 C 33.714844 283.1875 32.921875 282.8125 32.148438 282.398438 C 31.378906 281.984375 30.625 281.535156 29.898438 281.050781 C 29.167969 280.5625 28.464844 280.039062 27.789062 279.484375 C 27.113281 278.929688 26.464844 278.339844 25.84375 277.722656 C 25.222656 277.101562 24.636719 276.453125 24.082031 275.777344 C 23.523438 275.097656 23.003906 274.394531 22.515625 273.667969 C 22.027344 272.9375 21.578125 272.1875 21.164062 271.414062 C 20.753906 270.644531 20.378906 269.851562 20.042969 269.042969 C 19.707031 268.234375 19.410156 267.410156 19.15625 266.570312 C 18.902344 265.730469 18.6875 264.882812 18.515625 264.023438 C 18.34375 263.164062 18.214844 262.300781 18.128906 261.425781 C 18.042969 260.554688 17.996094 259.679688 17.996094 258.804688 L 17.996094 44.695312 C 17.996094 43.820312 18.042969 42.945312 18.128906 42.074219 C 18.214844 41.199219 18.34375 40.335938 18.515625 39.476562 C 18.6875 38.617188 18.902344 37.769531 19.15625 36.929688 C 19.410156 36.089844 19.707031 35.265625 20.042969 34.457031 C 20.378906 33.648438 20.753906 32.859375 21.164062 32.085938 C 21.578125 31.3125 22.027344 30.5625 22.515625 29.832031 C 23.003906 29.105469 23.523438 28.402344 24.082031 27.722656 C 24.636719 27.046875 25.222656 26.398438 25.84375 25.777344 C 26.464844 25.160156 27.113281 24.570312 27.789062 24.015625 C 28.464844 23.460938 29.167969 22.9375 29.898438 22.449219 C 30.625 21.964844 31.378906 21.515625 32.148438 21.101562 C 32.921875 20.6875 33.714844 20.3125 34.523438 19.976562 C 35.332031 19.640625 36.15625 19.34375 36.996094 19.089844 C 37.832031 18.835938 38.683594 18.621094 39.542969 18.449219 C 40.398438 18.277344 41.265625 18.148438 42.136719 18.0625 C 43.011719 17.976562 43.882812 17.933594 44.761719 17.933594 L 330.238281 17.933594 C 331.117188 17.933594 331.988281 17.976562 332.863281 18.0625 C 333.734375 18.148438 334.601562 18.277344 335.457031 18.449219 C 336.316406 18.621094 337.167969 18.835938 338.003906 19.089844 C 338.84375 19.34375 339.667969 19.640625 340.476562 19.976562 C 341.285156 20.3125 342.078125 20.6875 342.851562 21.101562 C 343.621094 21.515625 344.375 21.964844 345.101562 22.449219 C 345.832031 22.9375 346.535156 23.460938 347.210938 24.015625 C 347.886719 24.570312 348.535156 25.160156 349.15625 25.777344 C 349.777344 26.398438 350.363281 27.046875 350.917969 27.722656 C 351.476562 28.402344 351.996094 29.105469 352.484375 29.832031 C 352.972656 30.5625 353.421875 31.3125 353.835938 32.085938 C 354.246094 32.859375 354.621094 33.648438 354.957031 34.457031 C 355.292969 35.265625 355.589844 36.089844 355.84375 36.929688 C 356.097656 37.769531 356.3125 38.617188 356.484375 39.476562 C 356.65625 40.335938 356.785156 41.199219 356.871094 42.074219 C 356.957031 42.945312 357.003906 43.820312 357.003906 44.695312 Z M 158.121094 145.441406 C 158.535156 145.855469 158.90625 146.308594 159.230469 146.792969 C 159.558594 147.28125 159.832031 147.796875 160.058594 148.335938 C 160.28125 148.878906 160.449219 149.433594 160.566406 150.007812 C 160.679688 150.582031 160.734375 151.164062 160.734375 151.75 C 160.734375 152.335938 160.679688 152.914062 160.566406 153.488281 C 160.449219 154.066406 160.28125 154.621094 160.058594 155.164062 C 159.832031 155.703125 159.558594 156.21875 159.230469 156.707031 C 158.90625 157.191406 158.535156 157.644531 158.121094 158.058594 L 86.753906 229.425781 C 86.335938 229.828125 85.882812 230.1875 85.398438 230.503906 C 84.910156 230.816406 84.398438 231.082031 83.863281 231.296875 C 83.324219 231.511719 82.769531 231.671875 82.199219 231.777344 C 81.632812 231.886719 81.058594 231.9375 80.476562 231.929688 C 79.898438 231.925781 79.324219 231.863281 78.757812 231.75 C 78.191406 231.632812 77.640625 231.460938 77.105469 231.238281 C 76.570312 231.011719 76.0625 230.738281 75.582031 230.417969 C 75.101562 230.09375 74.65625 229.726562 74.246094 229.316406 C 73.835938 228.910156 73.472656 228.464844 73.148438 227.980469 C 72.824219 227.5 72.550781 226.992188 72.328125 226.460938 C 72.105469 225.925781 71.933594 225.375 71.816406 224.808594 C 71.699219 224.238281 71.640625 223.667969 71.632812 223.085938 C 71.628906 222.507812 71.679688 221.933594 71.789062 221.363281 C 71.894531 220.796875 72.054688 220.242188 72.269531 219.703125 C 72.484375 219.164062 72.75 218.652344 73.0625 218.167969 C 73.378906 217.679688 73.734375 217.230469 74.136719 216.8125 L 139.199219 151.75 L 74.136719 86.6875 C 73.734375 86.269531 73.375 85.820312 73.0625 85.332031 C 72.746094 84.847656 72.484375 84.335938 72.269531 83.796875 C 72.054688 83.257812 71.894531 82.703125 71.785156 82.136719 C 71.679688 81.566406 71.628906 80.992188 71.632812 80.414062 C 71.636719 79.832031 71.699219 79.261719 71.816406 78.691406 C 71.933594 78.125 72.101562 77.574219 72.328125 77.039062 C 72.550781 76.507812 72.824219 76 73.148438 75.519531 C 73.46875 75.035156 73.835938 74.589844 74.246094 74.183594 C 74.65625 73.773438 75.101562 73.40625 75.582031 73.082031 C 76.0625 72.761719 76.570312 72.488281 77.105469 72.261719 C 77.640625 72.039062 78.191406 71.867188 78.757812 71.753906 C 79.324219 71.636719 79.898438 71.574219 80.476562 71.570312 C 81.054688 71.5625 81.628906 71.613281 82.199219 71.722656 C 82.769531 71.828125 83.324219 71.988281 83.859375 72.203125 C 84.398438 72.417969 84.910156 72.683594 85.398438 72.996094 C 85.882812 73.3125 86.335938 73.671875 86.753906 74.074219 Z M 303.476562 223.121094 C 303.476562 223.707031 303.417969 224.285156 303.304688 224.859375 C 303.191406 225.433594 303.023438 225.992188 302.796875 226.535156 C 302.574219 227.074219 302.300781 227.589844 301.972656 228.078125 C 301.648438 228.566406 301.277344 229.015625 300.863281 229.429688 C 300.449219 229.84375 300 230.214844 299.511719 230.539062 C 299.023438 230.863281 298.511719 231.140625 297.96875 231.363281 C 297.429688 231.585938 296.871094 231.757812 296.296875 231.871094 C 295.722656 231.984375 295.140625 232.042969 294.554688 232.042969 L 187.5 232.042969 C 186.914062 232.042969 186.335938 231.984375 185.757812 231.871094 C 185.183594 231.753906 184.628906 231.585938 184.085938 231.363281 C 183.542969 231.136719 183.03125 230.863281 182.542969 230.539062 C 182.054688 230.210938 181.605469 229.84375 181.191406 229.429688 C 180.777344 229.015625 180.40625 228.5625 180.082031 228.078125 C 179.757812 227.589844 179.480469 227.074219 179.257812 226.535156 C 179.035156 225.992188 178.863281 225.433594 178.75 224.859375 C 178.636719 224.285156 178.578125 223.707031 178.578125 223.121094 C 178.578125 222.535156 178.636719 221.953125 178.75 221.378906 C 178.863281 220.804688 179.035156 220.246094 179.257812 219.707031 C 179.480469 219.164062 179.757812 218.652344 180.082031 218.164062 C 180.40625 217.675781 180.777344 217.226562 181.191406 216.8125 C 181.605469 216.398438 182.054688 216.027344 182.542969 215.703125 C 183.03125 215.375 183.542969 215.101562 184.085938 214.878906 C 184.628906 214.652344 185.183594 214.484375 185.757812 214.371094 C 186.335938 214.253906 186.914062 214.199219 187.5 214.199219 L 294.554688 214.199219 C 295.140625 214.199219 295.722656 214.253906 296.296875 214.371094 C 296.871094 214.484375 297.429688 214.652344 297.96875 214.875 C 298.511719 215.101562 299.023438 215.375 299.511719 215.699219 C 300 216.027344 300.449219 216.394531 300.863281 216.808594 C 301.277344 217.222656 301.648438 217.675781 301.972656 218.164062 C 302.300781 218.648438 302.574219 219.164062 302.796875 219.707031 C 303.023438 220.246094 303.191406 220.804688 303.304688 221.378906 C 303.417969 221.953125 303.476562 222.535156 303.476562 223.121094 Z M 303.476562 223.121094 " fill-opacity="1" fill-rule="nonzero"/></g></svg>