<svg xmlns="http://www.w3.org/2000/svg" xmlns:xlink="http://www.w3.org/1999/xlink" width="389" zoomAndPan="magnify" viewBox="0 0 291.75 374.999991" height="500" preserveAspectRatio="xMidYMid meet" version="1.0"><defs><clipPath id="eaa790e12f"><path d="M 177 0.160156 L 291.5 0.160156 L 291.5 374.839844 L 177 374.839844 Z M 177 0.160156 " clip-rule="nonzero"/></clipPath><clipPath id="9f7e73d61c"><path d="M 0 0.160156 L 115 0.160156 L 115 374.839844 L 0 374.839844 Z M 0 0.160156 " clip-rule="nonzero"/></clipPath></defs><g clip-path="url(#eaa790e12f)"><path fill="#ffe79e" d="M 187.53125 41.828125 L 177.117188 41.828125 L 177.117188 0.160156 L 187.53125 0.160156 C 222.042969 0.160156 250.015625 28.144531 250.015625 62.660156 L 250.015625 135.578125 C 250.015625 142.132812 253.101562 148.308594 258.347656 152.242188 L 283.339844 170.992188 C 288.339844 174.746094 291.394531 180.546875 291.652344 186.796875 C 291.914062 193.042969 289.355469 199.078125 284.679688 203.234375 L 257.007812 227.828125 C 252.5625 231.785156 250.015625 237.453125 250.015625 243.402344 L 250.015625 312.660156 C 250.015625 347.179688 222.042969 375.160156 187.53125 375.160156 L 177.117188 375.160156 L 177.117188 333.492188 L 187.53125 333.492188 C 199.035156 333.492188 208.359375 324.167969 208.359375 312.660156 L 208.359375 243.402344 C 208.359375 225.546875 215.992188 208.546875 229.335938 196.683594 L 237.953125 189.027344 L 233.351562 185.578125 C 217.621094 173.773438 208.359375 155.25 208.359375 135.578125 L 208.359375 62.660156 C 208.359375 51.15625 199.035156 41.828125 187.53125 41.828125 Z M 187.53125 41.828125 " fill-opacity="1" fill-rule="evenodd"/></g><g clip-path="url(#9f7e73d61c)"><path fill="#ffe79e" d="M 104.21875 41.828125 L 114.632812 41.828125 L 114.632812 0.160156 L 104.21875 0.160156 C 69.710938 0.160156 41.734375 28.144531 41.734375 62.660156 L 41.734375 135.578125 C 41.734375 142.132812 38.648438 148.308594 33.402344 152.242188 L 8.410156 170.992188 C 3.40625 174.746094 0.355469 180.546875 0.0976562 186.796875 C -0.164062 193.042969 2.398438 199.078125 7.070312 203.234375 L 34.742188 227.828125 C 39.191406 231.785156 41.734375 237.453125 41.734375 243.402344 L 41.734375 312.660156 C 41.734375 347.179688 69.710938 375.160156 104.21875 375.160156 L 114.632812 375.160156 L 114.632812 333.492188 L 104.21875 333.492188 C 92.714844 333.492188 83.390625 324.167969 83.390625 312.660156 L 83.390625 243.402344 C 83.390625 225.546875 75.757812 208.546875 62.414062 196.683594 L 53.796875 189.027344 L 58.398438 185.578125 C 74.128906 173.773438 83.390625 155.25 83.390625 135.578125 L 83.390625 62.660156 C 83.390625 51.15625 92.714844 41.828125 104.21875 41.828125 Z M 104.21875 41.828125 " fill-opacity="1" fill-rule="evenodd"/></g></svg>