<svg xmlns="http://www.w3.org/2000/svg" xmlns:xlink="http://www.w3.org/1999/xlink" width="500" zoomAndPan="magnify" viewBox="0 0 375 374.999991" height="500" preserveAspectRatio="xMidYMid meet" version="1.0"><defs><g/><clipPath id="eb7030ad74"><path d="M 88 67.851562 L 286 67.851562 L 286 189 L 88 189 Z M 88 67.851562 " clip-rule="nonzero"/></clipPath><clipPath id="64b534ed77"><path d="M 129.929688 81.449219 L 162.929688 81.449219 L 162.929688 175.949219 L 129.929688 175.949219 Z M 129.929688 81.449219 " clip-rule="nonzero"/></clipPath><clipPath id="d44227ecb3"><path d="M 174.289062 81.449219 L 209.539062 81.449219 L 209.539062 175.949219 L 174.289062 175.949219 Z M 174.289062 81.449219 " clip-rule="nonzero"/></clipPath><clipPath id="a9f0897e0f"><path d="M 213.925781 81.449219 L 249.175781 81.449219 L 249.175781 175.949219 L 213.925781 175.949219 Z M 213.925781 81.449219 " clip-rule="nonzero"/></clipPath><clipPath id="1bff5c379a"><path d="M 65.09375 192 L 309.59375 192 L 309.59375 236.601562 L 65.09375 236.601562 Z M 65.09375 192 " clip-rule="nonzero"/></clipPath><clipPath id="0d09f9f004"><path d="M 167.292969 207.355469 L 209.292969 207.355469 L 209.292969 224.605469 L 167.292969 224.605469 Z M 167.292969 207.355469 " clip-rule="nonzero"/></clipPath><clipPath id="08290254c4"><path d="M 171 211 L 205 211 L 205 224.605469 L 171 224.605469 Z M 171 211 " clip-rule="nonzero"/></clipPath></defs><g clip-path="url(#eb7030ad74)"><path fill="#38b6ff" d="M 91.953125 185.355469 C 94.699219 187.769531 98.339844 188.175781 100.5 188.175781 C 101.160156 188.175781 101.6875 188.136719 102 188.105469 L 269.570312 188.105469 C 279.335938 188.105469 282.910156 181.484375 283.433594 177.980469 L 283.472656 177.746094 L 283.472656 177.507812 C 283.472656 176.621094 284.917969 88.773438 285.03125 79.964844 C 285.089844 75.308594 283.261719 72.554688 281.683594 71.074219 C 278.402344 67.941406 274.011719 67.929688 273.054688 67.972656 C 268.679688 67.972656 113.558594 68.015625 103.71875 67.972656 L 103.632812 67.972656 C 99.402344 67.972656 95.953125 69.269531 93.378906 71.835938 C 89.304688 75.898438 89.1875 81.507812 89.1875 82.109375 L 88.65625 177.449219 C 88.65625 181.589844 90.449219 184.035156 91.953125 185.355469 Z M 96.375 82.160156 C 96.445312 80.792969 96.796875 79.503906 97.433594 78.296875 C 98.625 76.136719 100.605469 75.125 103.671875 75.125 L 103.730469 75.125 C 113.660156 75.164062 271.570312 75.125 273.160156 75.125 L 273.386719 75.125 C 273.386719 75.125 275.550781 75.089844 276.785156 76.269531 C 277.554688 77 277.933594 78.214844 277.914062 79.886719 C 277.800781 88.402344 276.457031 170.96875 276.359375 177.054688 C 276.101562 178.039062 274.890625 180.964844 269.585938 180.964844 L 101.363281 180.964844 C 100.546875 181.0625 97.925781 181.085938 96.65625 179.957031 C 96.289062 179.628906 95.800781 179.011719 95.800781 177.457031 Z M 96.375 82.160156 " fill-opacity="1" fill-rule="nonzero"/></g><g clip-path="url(#64b534ed77)"><path fill="#38b6ff" d="M 134.988281 128.707031 L 159.453125 153.15625 L 156.921875 155.691406 L 129.929688 128.707031 L 156.929688 101.722656 L 159.464844 104.257812 Z M 192.371094 81.480469 L 195.746094 82.328125 L 175.488281 175.921875 L 172.117188 175.074219 Z M 210.929688 101.722656 L 237.929688 128.707031 L 210.929688 155.691406 L 208.394531 153.15625 L 232.863281 128.707031 L 208.394531 104.257812 Z M 210.929688 101.722656 " fill-opacity="1" fill-rule="nonzero"/></g><g clip-path="url(#d44227ecb3)"><path fill="#737373" d="M 140.875 128.707031 L 165.339844 153.15625 L 162.804688 155.691406 L 135.816406 128.707031 L 162.816406 101.722656 L 165.351562 104.257812 Z M 198.257812 81.480469 L 201.628906 82.328125 L 181.375 175.921875 L 178.003906 175.074219 Z M 216.816406 101.722656 L 243.816406 128.707031 L 216.816406 155.691406 L 214.28125 153.15625 L 238.746094 128.707031 L 214.28125 104.257812 Z M 216.816406 101.722656 " fill-opacity="1" fill-rule="nonzero"/></g><g clip-path="url(#a9f0897e0f)"><path fill="#ffd698" d="M 146.316406 128.707031 L 170.78125 153.15625 L 168.246094 155.691406 L 141.257812 128.707031 L 168.257812 101.722656 L 170.792969 104.257812 Z M 203.699219 81.480469 L 207.070312 82.328125 L 186.816406 175.921875 L 183.441406 175.074219 Z M 222.257812 101.722656 L 249.257812 128.707031 L 222.257812 155.691406 L 219.722656 153.15625 L 244.1875 128.707031 L 219.722656 104.257812 Z M 222.257812 101.722656 " fill-opacity="1" fill-rule="nonzero"/></g><g clip-path="url(#1bff5c379a)"><path fill="#ffd698" d="M 309.4375 228.128906 L 309.367188 227.140625 L 286.339844 194.238281 C 286.058594 193.878906 285.71875 193.582031 285.324219 193.351562 C 284.929688 193.121094 284.503906 192.972656 284.050781 192.90625 C 283.597656 192.835938 283.148438 192.855469 282.703125 192.960938 C 282.257812 193.066406 281.847656 193.25 281.476562 193.515625 C 281.101562 193.777344 280.789062 194.101562 280.535156 194.484375 C 280.285156 194.867188 280.117188 195.285156 280.023438 195.734375 C 279.933594 196.183594 279.929688 196.632812 280.011719 197.085938 C 280.09375 197.535156 280.257812 197.957031 280.5 198.34375 L 301.914062 228.945312 C 301.054688 229.246094 300.167969 229.394531 299.257812 229.386719 L 299.164062 229.386719 C 296.953125 229.386719 80.492188 228.398438 74.25 228.398438 C 73.855469 228.414062 73.46875 228.367188 73.089844 228.261719 C 73.082031 228.144531 73.082031 228.023438 73.089844 227.902344 L 92.414062 199.699219 C 92.683594 199.308594 92.867188 198.882812 92.964844 198.417969 C 93.066406 197.953125 93.070312 197.488281 92.984375 197.023438 C 92.898438 196.554688 92.726562 196.121094 92.46875 195.726562 C 92.210938 195.328125 91.886719 194.992188 91.496094 194.726562 C 91.105469 194.457031 90.679688 194.273438 90.214844 194.175781 C 89.753906 194.078125 89.289062 194.070312 88.820312 194.15625 C 88.355469 194.246094 87.925781 194.417969 87.527344 194.675781 C 87.132812 194.933594 86.800781 195.261719 86.53125 195.652344 L 66.539062 224.839844 L 66.378906 225.316406 C 66.242188 225.734375 65.101562 229.457031 67.261719 232.488281 C 68.265625 233.878906 70.292969 235.539062 74.230469 235.539062 C 80.421875 235.539062 294.976562 236.507812 299.070312 236.527344 L 299.355469 236.527344 C 300.789062 236.527344 304.941406 236.285156 307.496094 233.621094 C 308.203125 232.890625 308.726562 232.046875 309.066406 231.085938 C 309.402344 230.128906 309.527344 229.144531 309.4375 228.128906 Z M 309.4375 228.128906 " fill-opacity="1" fill-rule="nonzero"/></g><path fill="#ffd698" d="M 200.222656 211.550781 L 177.671875 211.550781 C 175.242188 211.6875 173.53125 212.535156 172.589844 214.058594 C 171.261719 216.207031 172.226562 218.628906 172.339844 218.894531 L 172.574219 219.441406 L 179.316406 224.3125 L 197.832031 224.121094 L 204.777344 219.136719 L 204.90625 218.253906 C 204.992188 217.71875 205.316406 214.941406 203.707031 213.066406 C 203.269531 212.5625 202.746094 212.179688 202.132812 211.914062 C 201.523438 211.648438 200.886719 211.527344 200.222656 211.550781 Z M 196.429688 219.855469 L 180.675781 220.015625 L 176.15625 216.761719 C 176.132812 216.609375 176.148438 216.460938 176.203125 216.316406 C 176.289062 216.183594 176.738281 215.914062 177.832031 215.847656 L 200.203125 215.847656 C 200.28125 215.847656 200.355469 215.851562 200.429688 215.871094 C 200.59375 216.160156 200.671875 216.472656 200.667969 216.804688 Z M 196.429688 219.855469 " fill-opacity="1" fill-rule="nonzero"/><g clip-path="url(#0d09f9f004)"><path fill="#737373" d="M 309.4375 228.128906 L 309.367188 227.140625 L 286.339844 194.238281 C 286.058594 193.878906 285.71875 193.582031 285.324219 193.351562 C 284.929688 193.121094 284.503906 192.972656 284.050781 192.90625 C 283.597656 192.835938 283.148438 192.855469 282.703125 192.960938 C 282.257812 193.066406 281.847656 193.25 281.476562 193.515625 C 281.101562 193.777344 280.789062 194.101562 280.535156 194.484375 C 280.285156 194.867188 280.117188 195.285156 280.023438 195.734375 C 279.933594 196.183594 279.929688 196.632812 280.011719 197.085938 C 280.09375 197.535156 280.257812 197.957031 280.5 198.34375 L 301.914062 228.945312 C 301.054688 229.246094 300.167969 229.394531 299.257812 229.386719 L 299.164062 229.386719 C 296.953125 229.386719 80.492188 228.398438 74.25 228.398438 C 73.855469 228.414062 73.46875 228.367188 73.089844 228.261719 C 73.082031 228.144531 73.082031 228.023438 73.089844 227.902344 L 92.414062 199.699219 C 92.683594 199.308594 92.867188 198.882812 92.964844 198.417969 C 93.066406 197.953125 93.070312 197.488281 92.984375 197.023438 C 92.898438 196.554688 92.726562 196.121094 92.46875 195.726562 C 92.210938 195.328125 91.886719 194.992188 91.496094 194.726562 C 91.105469 194.457031 90.679688 194.273438 90.214844 194.175781 C 89.753906 194.078125 89.289062 194.070312 88.820312 194.15625 C 88.355469 194.246094 87.925781 194.417969 87.527344 194.675781 C 87.132812 194.933594 86.800781 195.261719 86.53125 195.652344 L 66.539062 224.839844 L 66.378906 225.316406 C 66.242188 225.734375 65.101562 229.457031 67.261719 232.488281 C 68.265625 233.878906 70.292969 235.539062 74.230469 235.539062 C 80.421875 235.539062 294.976562 236.507812 299.070312 236.527344 L 299.355469 236.527344 C 300.789062 236.527344 304.941406 236.285156 307.496094 233.621094 C 308.203125 232.890625 308.726562 232.046875 309.066406 231.085938 C 309.402344 230.128906 309.527344 229.144531 309.4375 228.128906 Z M 309.4375 228.128906 " fill-opacity="1" fill-rule="nonzero"/></g><g clip-path="url(#08290254c4)"><path fill="#737373" d="M 200.222656 211.550781 L 177.671875 211.550781 C 175.242188 211.6875 173.53125 212.535156 172.589844 214.058594 C 171.261719 216.207031 172.226562 218.628906 172.339844 218.894531 L 172.574219 219.441406 L 179.316406 224.3125 L 197.832031 224.121094 L 204.777344 219.136719 L 204.90625 218.253906 C 204.992188 217.71875 205.316406 214.941406 203.707031 213.066406 C 203.269531 212.5625 202.746094 212.179688 202.132812 211.914062 C 201.523438 211.648438 200.886719 211.527344 200.222656 211.550781 Z M 196.429688 219.855469 L 180.675781 220.015625 L 176.15625 216.761719 C 176.132812 216.609375 176.148438 216.460938 176.203125 216.316406 C 176.289062 216.183594 176.738281 215.914062 177.832031 215.847656 L 200.203125 215.847656 C 200.28125 215.847656 200.355469 215.851562 200.429688 215.871094 C 200.59375 216.160156 200.671875 216.472656 200.667969 216.804688 Z M 196.429688 219.855469 " fill-opacity="1" fill-rule="nonzero"/></g><g fill="#38b6ff" fill-opacity="1"><g transform="translate(71.350201, 290.795931)"><g><path d="M 10.152344 0 L 13.066406 0 L 22.230469 -31.160156 L 22.324219 -31.160156 L 31.488281 0 L 34.449219 0 L 44.085938 -32.945312 L 42.113281 -32.945312 L 32.992188 -1.925781 L 32.945312 -1.925781 L 23.828125 -32.945312 L 20.773438 -32.945312 L 11.703125 -1.925781 L 11.609375 -1.925781 L 2.492188 -32.945312 L 0.46875 -32.945312 Z M 10.152344 0 "/></g></g></g><g fill="#38b6ff" fill-opacity="1"><g transform="translate(115.903382, 290.795931)"><g><path d="M 14.382812 0.941406 C 19.222656 0.941406 23.6875 -1.644531 25.566406 -5.453125 L 23.921875 -6.25 C 22.277344 -3.101562 18.472656 -0.847656 14.429688 -0.847656 C 8.132812 -0.847656 3.570312 -5.121094 3.289062 -11.140625 L 24.582031 -11.140625 L 24.582031 -11.796875 C 24.25 -19.175781 19.882812 -24.488281 13.253906 -24.488281 C 6.390625 -24.488281 1.410156 -19.175781 1.410156 -11.84375 C 1.410156 -4.417969 6.863281 0.941406 14.382812 0.941406 Z M 3.335938 -12.925781 C 3.761719 -18.660156 7.753906 -22.699219 13.207031 -22.699219 C 18.425781 -22.699219 22.230469 -18.753906 22.652344 -12.925781 Z M 3.335938 -12.925781 "/></g></g></g><g fill="#38b6ff" fill-opacity="1"><g transform="translate(142.456699, 290.795931)"><g><path d="M 14.710938 0.941406 C 21.761719 0.941406 26.882812 -4.371094 26.882812 -11.75 C 26.882812 -19.175781 21.761719 -24.488281 14.710938 -24.488281 C 9.871094 -24.488281 6.0625 -21.902344 4.277344 -17.90625 L 4.230469 -17.90625 L 4.230469 -34.355469 L 2.351562 -34.355469 L 2.351562 0 L 4.136719 0 L 4.183594 -5.734375 L 4.230469 -5.734375 C 6.015625 -1.644531 9.824219 0.941406 14.710938 0.941406 Z M 14.617188 -0.847656 C 8.601562 -0.847656 4.183594 -5.5 4.183594 -11.75 C 4.183594 -18.046875 8.601562 -22.699219 14.617188 -22.699219 C 20.632812 -22.699219 25.003906 -18.046875 25.003906 -11.75 C 25.003906 -5.453125 20.632812 -0.847656 14.617188 -0.847656 Z M 14.617188 -0.847656 "/></g></g></g><g fill="#ffd698" fill-opacity="1"><g transform="translate(170.745416, 290.795931)"><g><path d="M 18.894531 1.175781 C 27.261719 1.175781 33.277344 -4.042969 34.402344 -12.21875 L 32.523438 -12.644531 C 31.535156 -5.3125 26.273438 -0.65625 18.894531 -0.65625 C 9.539062 -0.65625 3.570312 -6.816406 3.570312 -16.449219 C 3.570312 -26.085938 8.976562 -32.289062 17.765625 -32.289062 C 23.734375 -32.289062 28.433594 -28.246094 29.5625 -21.855469 L 31.441406 -22.230469 C 30.175781 -29.515625 24.769531 -34.121094 17.765625 -34.121094 C 7.753906 -34.121094 1.644531 -27.261719 1.644531 -16.449219 C 1.644531 -5.6875 8.367188 1.175781 18.894531 1.175781 Z M 18.894531 1.175781 "/></g></g></g><g fill="#ffd698" fill-opacity="1"><g transform="translate(206.087178, 290.795931)"><g><path d="M 2.351562 0 L 4.230469 0 L 4.230469 -13.582031 C 4.230469 -19.035156 7.847656 -22.699219 13.675781 -22.699219 C 18.234375 -22.699219 20.960938 -19.929688 20.960938 -15.367188 L 20.960938 0 L 22.84375 0 L 22.84375 -15.464844 C 22.84375 -21.101562 19.503906 -24.488281 13.957031 -24.488281 C 9.398438 -24.488281 5.875 -22.464844 4.277344 -19.082031 L 4.230469 -19.082031 L 4.230469 -34.355469 L 2.351562 -34.355469 Z M 2.351562 0 "/></g></g></g><g fill="#ffd698" fill-opacity="1"><g transform="translate(231.042595, 290.795931)"><g><path d="M 14.382812 0.941406 C 19.222656 0.941406 23.6875 -1.644531 25.566406 -5.453125 L 23.921875 -6.25 C 22.277344 -3.101562 18.472656 -0.847656 14.429688 -0.847656 C 8.132812 -0.847656 3.570312 -5.121094 3.289062 -11.140625 L 24.582031 -11.140625 L 24.582031 -11.796875 C 24.25 -19.175781 19.882812 -24.488281 13.253906 -24.488281 C 6.390625 -24.488281 1.410156 -19.175781 1.410156 -11.84375 C 1.410156 -4.417969 6.863281 0.941406 14.382812 0.941406 Z M 3.335938 -12.925781 C 3.761719 -18.660156 7.753906 -22.699219 13.207031 -22.699219 C 18.425781 -22.699219 22.230469 -18.753906 22.652344 -12.925781 Z M 3.335938 -12.925781 "/></g></g></g><g fill="#ffd698" fill-opacity="1"><g transform="translate(257.595912, 290.795931)"><g><path d="M 14.382812 0.941406 C 19.222656 0.941406 23.6875 -1.644531 25.566406 -5.453125 L 23.921875 -6.25 C 22.277344 -3.101562 18.472656 -0.847656 14.429688 -0.847656 C 8.132812 -0.847656 3.570312 -5.121094 3.289062 -11.140625 L 24.582031 -11.140625 L 24.582031 -11.796875 C 24.25 -19.175781 19.882812 -24.488281 13.253906 -24.488281 C 6.390625 -24.488281 1.410156 -19.175781 1.410156 -11.84375 C 1.410156 -4.417969 6.863281 0.941406 14.382812 0.941406 Z M 3.335938 -12.925781 C 3.761719 -18.660156 7.753906 -22.699219 13.207031 -22.699219 C 18.425781 -22.699219 22.230469 -18.753906 22.652344 -12.925781 Z M 3.335938 -12.925781 "/></g></g></g><g fill="#ffd698" fill-opacity="1"><g transform="translate(284.149229, 290.795931)"><g><path d="M 2.351562 0 L 4.230469 0 L 4.230469 -9.824219 L 8.035156 -13.347656 L 17.203125 0 L 19.503906 0 L 9.398438 -14.617188 L 18.988281 -23.546875 L 16.308594 -23.546875 L 4.277344 -12.265625 L 4.230469 -12.265625 L 4.230469 -34.355469 L 2.351562 -34.355469 Z M 2.351562 0 "/></g></g></g></svg>