<svg xmlns="http://www.w3.org/2000/svg" xmlns:xlink="http://www.w3.org/1999/xlink" width="489" zoomAndPan="magnify" viewBox="0 0 366.75 303.749993" height="405" preserveAspectRatio="xMidYMid meet" version="1.0"><defs><clipPath id="e9dc79fa53"><path d="M 0.0273438 65 L 104 65 L 104 241 L 0.0273438 241 Z M 0.0273438 65 " clip-rule="nonzero"/></clipPath><clipPath id="418e74fde2"><path d="M 263 65 L 366.472656 65 L 366.472656 241 L 263 241 Z M 263 65 " clip-rule="nonzero"/></clipPath><clipPath id="468bd660f2"><path d="M 122 1 L 258 1 L 258 303.5 L 122 303.5 Z M 122 1 " clip-rule="nonzero"/></clipPath></defs><g clip-path="url(#e9dc79fa53)"><path fill="#a6cf94" d="M 92.558594 240.417969 C 89.722656 240.417969 86.886719 239.339844 84.722656 237.171875 L 0.488281 152.863281 L 84.722656 68.554688 C 89.050781 64.222656 96.066406 64.222656 100.390625 68.554688 C 104.714844 72.882812 104.714844 79.902344 100.390625 84.230469 L 31.820312 152.863281 L 100.390625 221.496094 C 104.714844 225.824219 104.714844 232.84375 100.390625 237.171875 C 98.226562 239.339844 95.394531 240.417969 92.558594 240.417969 " fill-opacity="1" fill-rule="nonzero"/></g><g clip-path="url(#418e74fde2)"><path fill="#a6cf94" d="M 274.242188 240.417969 C 271.40625 240.417969 268.570312 239.339844 266.40625 237.171875 C 262.082031 232.84375 262.082031 225.824219 266.40625 221.496094 L 334.976562 152.863281 L 266.40625 84.230469 C 262.082031 79.902344 262.082031 72.882812 266.40625 68.554688 C 270.734375 64.222656 277.746094 64.222656 282.074219 68.554688 L 366.308594 152.863281 L 282.074219 237.171875 C 279.910156 239.339844 277.078125 240.417969 274.242188 240.417969 " fill-opacity="1" fill-rule="nonzero"/></g><g clip-path="url(#468bd660f2)"><path fill="#a6cf94" d="M 133.699219 303.992188 C 132.328125 303.992188 130.929688 303.734375 129.574219 303.1875 C 123.898438 300.910156 121.144531 294.449219 123.425781 288.769531 L 235.90625 8.6875 C 238.191406 3.007812 244.640625 0.25 250.316406 2.535156 C 255.996094 4.820312 258.746094 11.277344 256.460938 16.960938 L 143.980469 297.039062 C 142.246094 301.367188 138.089844 303.992188 133.699219 303.992188 " fill-opacity="1" fill-rule="nonzero"/></g></svg>