<svg xmlns="http://www.w3.org/2000/svg" xmlns:xlink="http://www.w3.org/1999/xlink" width="500" zoomAndPan="magnify" viewBox="0 0 375 374.999991" height="500" preserveAspectRatio="xMidYMid meet" version="1.0"><path fill="#005022" d="M 0 0 L 12.5 0 L 12.5 75 L 0 75 Z M 0 0 " fill-opacity="1" fill-rule="nonzero"/><path fill="#005022" d="M 75 75 C 75.820312 75 76.636719 74.960938 77.449219 74.878906 C 78.265625 74.800781 79.074219 74.679688 79.878906 74.519531 C 80.679688 74.359375 81.472656 74.160156 82.257812 73.921875 C 83.039062 73.6875 83.8125 73.410156 84.566406 73.097656 C 85.324219 72.785156 86.0625 72.433594 86.785156 72.046875 C 87.507812 71.660156 88.207031 71.242188 88.890625 70.785156 C 89.570312 70.332031 90.226562 69.84375 90.859375 69.324219 C 91.492188 68.804688 92.097656 68.257812 92.675781 67.675781 C 93.257812 67.097656 93.804688 66.492188 94.324219 65.859375 C 94.84375 65.226562 95.332031 64.570312 95.785156 63.890625 C 96.242188 63.207031 96.660156 62.507812 97.046875 61.785156 C 97.433594 61.0625 97.785156 60.324219 98.097656 59.566406 C 98.410156 58.8125 98.6875 58.039062 98.921875 57.257812 C 99.160156 56.472656 99.359375 55.679688 99.519531 54.878906 C 99.679688 54.074219 99.800781 53.265625 99.878906 52.449219 C 99.960938 51.636719 100 50.820312 100 50 L 100 25 C 100 24.179688 99.960938 23.363281 99.878906 22.550781 C 99.800781 21.734375 99.679688 20.925781 99.519531 20.121094 C 99.359375 19.320312 99.160156 18.527344 98.921875 17.742188 C 98.6875 16.960938 98.410156 16.1875 98.097656 15.433594 C 97.785156 14.675781 97.433594 13.9375 97.046875 13.214844 C 96.660156 12.492188 96.242188 11.792969 95.785156 11.109375 C 95.332031 10.429688 94.84375 9.773438 94.324219 9.140625 C 93.804688 8.507812 93.257812 7.902344 92.675781 7.324219 C 92.097656 6.742188 91.492188 6.195312 90.859375 5.675781 C 90.226562 5.15625 89.570312 4.667969 88.890625 4.214844 C 88.207031 3.757812 87.507812 3.339844 86.785156 2.953125 C 86.0625 2.566406 85.324219 2.214844 84.566406 1.902344 C 83.8125 1.589844 83.039062 1.3125 82.257812 1.078125 C 81.472656 0.839844 80.679688 0.640625 79.878906 0.480469 C 79.074219 0.320312 78.265625 0.199219 77.449219 0.121094 C 76.636719 0.0390625 75.820312 0 75 0 C 74.179688 0 73.363281 0.0390625 72.550781 0.121094 C 71.734375 0.199219 70.925781 0.320312 70.121094 0.480469 C 69.320312 0.640625 68.527344 0.839844 67.742188 1.078125 C 66.960938 1.3125 66.1875 1.589844 65.433594 1.902344 C 64.675781 2.214844 63.9375 2.566406 63.214844 2.953125 C 62.492188 3.339844 61.792969 3.757812 61.109375 4.214844 C 60.429688 4.667969 59.773438 5.15625 59.140625 5.675781 C 58.507812 6.195312 57.902344 6.742188 57.324219 7.324219 C 56.742188 7.902344 56.195312 8.507812 55.675781 9.140625 C 55.15625 9.773438 54.667969 10.429688 54.214844 11.109375 C 53.757812 11.792969 53.339844 12.492188 52.953125 13.214844 C 52.566406 13.9375 52.214844 14.675781 51.902344 15.433594 C 51.589844 16.1875 51.3125 16.960938 51.078125 17.742188 C 50.839844 18.527344 50.640625 19.320312 50.480469 20.121094 C 50.320312 20.925781 50.199219 21.734375 50.121094 22.550781 C 50.039062 23.363281 50 24.179688 50 25 L 50 50 C 50 50.820312 50.039062 51.636719 50.121094 52.449219 C 50.199219 53.265625 50.320312 54.074219 50.480469 54.878906 C 50.640625 55.679688 50.839844 56.472656 51.078125 57.257812 C 51.3125 58.039062 51.589844 58.8125 51.902344 59.566406 C 52.214844 60.324219 52.566406 61.0625 52.953125 61.785156 C 53.339844 62.507812 53.757812 63.207031 54.214844 63.890625 C 54.667969 64.570312 55.15625 65.226562 55.675781 65.859375 C 56.195312 66.492188 56.742188 67.097656 57.324219 67.675781 C 57.902344 68.257812 58.507812 68.804688 59.140625 69.324219 C 59.773438 69.84375 60.429688 70.332031 61.109375 70.785156 C 61.792969 71.242188 62.492188 71.660156 63.214844 72.046875 C 63.9375 72.433594 64.675781 72.785156 65.433594 73.097656 C 66.1875 73.410156 66.960938 73.6875 67.742188 73.921875 C 68.527344 74.160156 69.320312 74.359375 70.121094 74.519531 C 70.925781 74.679688 71.734375 74.800781 72.550781 74.878906 C 73.363281 74.960938 74.179688 75 75 75 Z M 62.5 25 C 62.5 24.179688 62.578125 23.367188 62.738281 22.5625 C 62.898438 21.757812 63.136719 20.976562 63.453125 20.214844 C 63.765625 19.457031 64.152344 18.738281 64.605469 18.054688 C 65.0625 17.371094 65.582031 16.742188 66.160156 16.160156 C 66.742188 15.582031 67.371094 15.0625 68.054688 14.605469 C 68.738281 14.152344 69.457031 13.765625 70.214844 13.453125 C 70.976562 13.136719 71.757812 12.898438 72.5625 12.738281 C 73.367188 12.578125 74.179688 12.5 75 12.5 C 75.820312 12.5 76.632812 12.578125 77.4375 12.738281 C 78.242188 12.898438 79.023438 13.136719 79.785156 13.453125 C 80.542969 13.765625 81.261719 14.152344 81.945312 14.605469 C 82.628906 15.0625 83.257812 15.582031 83.839844 16.160156 C 84.417969 16.742188 84.9375 17.371094 85.394531 18.054688 C 85.847656 18.738281 86.234375 19.457031 86.546875 20.214844 C 86.863281 20.976562 87.101562 21.757812 87.261719 22.5625 C 87.421875 23.367188 87.5 24.179688 87.5 25 L 87.5 50 C 87.5 50.820312 87.421875 51.632812 87.261719 52.4375 C 87.101562 53.242188 86.863281 54.023438 86.546875 54.785156 C 86.234375 55.542969 85.847656 56.261719 85.394531 56.945312 C 84.9375 57.628906 84.417969 58.257812 83.839844 58.839844 C 83.257812 59.417969 82.628906 59.9375 81.945312 60.394531 C 81.261719 60.847656 80.542969 61.234375 79.785156 61.546875 C 79.023438 61.863281 78.242188 62.101562 77.4375 62.261719 C 76.632812 62.417969 75.820312 62.5 75 62.5 C 74.179688 62.5 73.367188 62.417969 72.5625 62.261719 C 71.757812 62.101562 70.976562 61.863281 70.214844 61.546875 C 69.457031 61.234375 68.738281 60.847656 68.054688 60.394531 C 67.371094 59.9375 66.742188 59.417969 66.160156 58.839844 C 65.582031 58.257812 65.0625 57.628906 64.605469 56.945312 C 64.152344 56.261719 63.765625 55.542969 63.453125 54.785156 C 63.136719 54.023438 62.898438 53.242188 62.738281 52.4375 C 62.578125 51.632812 62.5 50.820312 62.5 50 Z M 62.5 25 " fill-opacity="1" fill-rule="nonzero"/><path fill="#005022" d="M 137.5 0 L 150 0 L 150 75 L 137.5 75 Z M 137.5 0 " fill-opacity="1" fill-rule="nonzero"/><path fill="#005022" d="M 212.5 75 C 213.320312 75 214.136719 74.960938 214.949219 74.878906 C 215.765625 74.800781 216.574219 74.679688 217.378906 74.519531 C 218.179688 74.359375 218.972656 74.160156 219.757812 73.921875 C 220.539062 73.6875 221.3125 73.410156 222.066406 73.097656 C 222.824219 72.785156 223.5625 72.433594 224.285156 72.046875 C 225.007812 71.660156 225.707031 71.242188 226.390625 70.785156 C 227.070312 70.332031 227.726562 69.84375 228.359375 69.324219 C 228.992188 68.804688 229.597656 68.257812 230.175781 67.675781 C 230.757812 67.097656 231.304688 66.492188 231.824219 65.859375 C 232.34375 65.226562 232.832031 64.570312 233.285156 63.890625 C 233.742188 63.207031 234.160156 62.507812 234.546875 61.785156 C 234.933594 61.0625 235.285156 60.324219 235.597656 59.566406 C 235.910156 58.8125 236.1875 58.039062 236.421875 57.257812 C 236.660156 56.472656 236.859375 55.679688 237.019531 54.878906 C 237.179688 54.074219 237.300781 53.265625 237.378906 52.449219 C 237.460938 51.636719 237.5 50.820312 237.5 50 L 237.5 25 C 237.5 24.179688 237.460938 23.363281 237.378906 22.550781 C 237.300781 21.734375 237.179688 20.925781 237.019531 20.121094 C 236.859375 19.320312 236.660156 18.527344 236.421875 17.742188 C 236.1875 16.960938 235.910156 16.1875 235.597656 15.433594 C 235.285156 14.675781 234.933594 13.9375 234.546875 13.214844 C 234.160156 12.492188 233.742188 11.792969 233.285156 11.109375 C 232.832031 10.429688 232.34375 9.773438 231.824219 9.140625 C 231.304688 8.507812 230.757812 7.902344 230.175781 7.324219 C 229.597656 6.742188 228.992188 6.195312 228.359375 5.675781 C 227.726562 5.15625 227.070312 4.667969 226.390625 4.214844 C 225.707031 3.757812 225.007812 3.339844 224.285156 2.953125 C 223.5625 2.566406 222.824219 2.214844 222.066406 1.902344 C 221.3125 1.589844 220.539062 1.3125 219.757812 1.078125 C 218.972656 0.839844 218.179688 0.640625 217.378906 0.480469 C 216.574219 0.320312 215.765625 0.199219 214.949219 0.121094 C 214.136719 0.0390625 213.320312 0 212.5 0 C 211.679688 0 210.863281 0.0390625 210.050781 0.121094 C 209.234375 0.199219 208.425781 0.320312 207.621094 0.480469 C 206.820312 0.640625 206.027344 0.839844 205.242188 1.078125 C 204.460938 1.3125 203.6875 1.589844 202.933594 1.902344 C 202.175781 2.214844 201.4375 2.566406 200.714844 2.953125 C 199.992188 3.339844 199.292969 3.757812 198.609375 4.214844 C 197.929688 4.667969 197.273438 5.15625 196.640625 5.675781 C 196.007812 6.195312 195.402344 6.742188 194.824219 7.324219 C 194.242188 7.902344 193.695312 8.507812 193.175781 9.140625 C 192.65625 9.773438 192.167969 10.429688 191.714844 11.109375 C 191.257812 11.792969 190.839844 12.492188 190.453125 13.214844 C 190.066406 13.9375 189.714844 14.675781 189.402344 15.433594 C 189.089844 16.1875 188.8125 16.960938 188.578125 17.742188 C 188.339844 18.527344 188.140625 19.320312 187.980469 20.121094 C 187.820312 20.925781 187.699219 21.734375 187.621094 22.550781 C 187.539062 23.363281 187.5 24.179688 187.5 25 L 187.5 50 C 187.5 50.820312 187.539062 51.636719 187.621094 52.449219 C 187.699219 53.265625 187.820312 54.074219 187.980469 54.878906 C 188.140625 55.679688 188.339844 56.472656 188.578125 57.257812 C 188.8125 58.039062 189.089844 58.8125 189.402344 59.566406 C 189.714844 60.324219 190.066406 61.0625 190.453125 61.785156 C 190.839844 62.507812 191.257812 63.207031 191.714844 63.890625 C 192.167969 64.570312 192.65625 65.226562 193.175781 65.859375 C 193.695312 66.492188 194.242188 67.097656 194.824219 67.675781 C 195.402344 68.257812 196.007812 68.804688 196.640625 69.324219 C 197.273438 69.84375 197.929688 70.332031 198.609375 70.785156 C 199.292969 71.242188 199.992188 71.660156 200.714844 72.046875 C 201.4375 72.433594 202.175781 72.785156 202.933594 73.097656 C 203.6875 73.410156 204.460938 73.6875 205.242188 73.921875 C 206.027344 74.160156 206.820312 74.359375 207.621094 74.519531 C 208.425781 74.679688 209.234375 74.800781 210.050781 74.878906 C 210.863281 74.960938 211.679688 75 212.5 75 Z M 200 25 C 200 24.179688 200.078125 23.367188 200.238281 22.5625 C 200.398438 21.757812 200.636719 20.976562 200.953125 20.214844 C 201.265625 19.457031 201.652344 18.738281 202.105469 18.054688 C 202.5625 17.371094 203.082031 16.742188 203.660156 16.160156 C 204.242188 15.582031 204.871094 15.0625 205.554688 14.605469 C 206.238281 14.152344 206.957031 13.765625 207.714844 13.453125 C 208.476562 13.136719 209.257812 12.898438 210.0625 12.738281 C 210.867188 12.578125 211.679688 12.5 212.5 12.5 C 213.320312 12.5 214.132812 12.578125 214.9375 12.738281 C 215.742188 12.898438 216.523438 13.136719 217.285156 13.453125 C 218.042969 13.765625 218.761719 14.152344 219.445312 14.605469 C 220.128906 15.0625 220.757812 15.582031 221.339844 16.160156 C 221.917969 16.742188 222.4375 17.371094 222.894531 18.054688 C 223.347656 18.738281 223.734375 19.457031 224.046875 20.214844 C 224.363281 20.976562 224.601562 21.757812 224.757812 22.5625 C 224.917969 23.367188 225 24.179688 225 25 L 225 50 C 225 50.820312 224.917969 51.632812 224.757812 52.4375 C 224.601562 53.242188 224.363281 54.023438 224.046875 54.785156 C 223.734375 55.542969 223.347656 56.261719 222.894531 56.945312 C 222.4375 57.628906 221.917969 58.257812 221.339844 58.839844 C 220.757812 59.417969 220.128906 59.9375 219.445312 60.394531 C 218.761719 60.847656 218.042969 61.234375 217.285156 61.546875 C 216.523438 61.863281 215.742188 62.101562 214.9375 62.261719 C 214.132812 62.417969 213.320312 62.5 212.5 62.5 C 211.679688 62.5 210.867188 62.417969 210.0625 62.261719 C 209.257812 62.101562 208.476562 61.863281 207.714844 61.546875 C 206.957031 61.234375 206.238281 60.847656 205.554688 60.394531 C 204.871094 59.9375 204.242188 59.417969 203.660156 58.839844 C 203.082031 58.257812 202.5625 57.628906 202.105469 56.945312 C 201.652344 56.261719 201.265625 55.542969 200.953125 54.785156 C 200.636719 54.023438 200.398438 53.242188 200.238281 52.4375 C 200.078125 51.632812 200 50.820312 200 50 Z M 200 25 " fill-opacity="1" fill-rule="nonzero"/><path fill="#005022" d="M 275 0 L 287.5 0 L 287.5 75 L 275 75 Z M 275 0 " fill-opacity="1" fill-rule="nonzero"/><path fill="#005022" d="M 350 0 C 349.179688 0 348.363281 0.0390625 347.550781 0.121094 C 346.734375 0.199219 345.925781 0.320312 345.121094 0.480469 C 344.320312 0.640625 343.527344 0.839844 342.742188 1.078125 C 341.960938 1.3125 341.1875 1.589844 340.433594 1.902344 C 339.675781 2.214844 338.9375 2.566406 338.214844 2.953125 C 337.492188 3.339844 336.792969 3.757812 336.109375 4.214844 C 335.429688 4.667969 334.773438 5.15625 334.140625 5.675781 C 333.507812 6.195312 332.902344 6.742188 332.324219 7.324219 C 331.742188 7.902344 331.195312 8.507812 330.675781 9.140625 C 330.15625 9.773438 329.667969 10.429688 329.214844 11.109375 C 328.757812 11.792969 328.339844 12.492188 327.953125 13.214844 C 327.566406 13.9375 327.214844 14.675781 326.902344 15.433594 C 326.589844 16.1875 326.3125 16.960938 326.078125 17.742188 C 325.839844 18.527344 325.640625 19.320312 325.480469 20.121094 C 325.320312 20.925781 325.199219 21.734375 325.121094 22.550781 C 325.039062 23.363281 325 24.179688 325 25 L 325 50 C 325 50.820312 325.039062 51.636719 325.121094 52.449219 C 325.199219 53.265625 325.320312 54.074219 325.480469 54.878906 C 325.640625 55.679688 325.839844 56.472656 326.078125 57.257812 C 326.3125 58.039062 326.589844 58.8125 326.902344 59.566406 C 327.214844 60.324219 327.566406 61.0625 327.953125 61.785156 C 328.335938 62.507812 328.757812 63.207031 329.214844 63.890625 C 329.667969 64.570312 330.15625 65.226562 330.675781 65.859375 C 331.195312 66.492188 331.742188 67.097656 332.320312 67.675781 C 332.902344 68.257812 333.507812 68.804688 334.140625 69.324219 C 334.773438 69.84375 335.429688 70.332031 336.109375 70.785156 C 336.792969 71.242188 337.492188 71.660156 338.214844 72.046875 C 338.9375 72.433594 339.675781 72.785156 340.433594 73.097656 C 341.1875 73.410156 341.960938 73.6875 342.742188 73.921875 C 343.527344 74.160156 344.320312 74.359375 345.121094 74.519531 C 345.925781 74.679688 346.734375 74.800781 347.550781 74.878906 C 348.363281 74.960938 349.179688 75 350 75 C 350.820312 75 351.636719 74.960938 352.449219 74.878906 C 353.265625 74.800781 354.074219 74.679688 354.878906 74.519531 C 355.679688 74.359375 356.472656 74.160156 357.257812 73.921875 C 358.039062 73.6875 358.8125 73.410156 359.566406 73.097656 C 360.324219 72.785156 361.0625 72.433594 361.785156 72.046875 C 362.507812 71.660156 363.207031 71.242188 363.890625 70.785156 C 364.570312 70.332031 365.226562 69.84375 365.859375 69.324219 C 366.492188 68.804688 367.097656 68.257812 367.675781 67.675781 C 368.257812 67.097656 368.804688 66.492188 369.324219 65.859375 C 369.84375 65.226562 370.332031 64.570312 370.785156 63.890625 C 371.242188 63.207031 371.660156 62.507812 372.046875 61.785156 C 372.433594 61.0625 372.785156 60.324219 373.097656 59.566406 C 373.410156 58.8125 373.6875 58.039062 373.921875 57.257812 C 374.160156 56.472656 374.359375 55.679688 374.519531 54.878906 C 374.679688 54.074219 374.800781 53.265625 374.878906 52.449219 C 374.960938 51.636719 375 50.820312 375 50 L 375 25 C 375 24.179688 374.960938 23.363281 374.878906 22.550781 C 374.800781 21.734375 374.679688 20.925781 374.519531 20.121094 C 374.359375 19.320312 374.160156 18.527344 373.921875 17.742188 C 373.6875 16.960938 373.410156 16.1875 373.097656 15.433594 C 372.785156 14.675781 372.433594 13.9375 372.046875 13.214844 C 371.660156 12.492188 371.242188 11.792969 370.785156 11.109375 C 370.332031 10.429688 369.84375 9.773438 369.324219 9.140625 C 368.804688 8.507812 368.257812 7.902344 367.675781 7.324219 C 367.097656 6.742188 366.492188 6.195312 365.859375 5.675781 C 365.226562 5.15625 364.570312 4.667969 363.890625 4.214844 C 363.207031 3.757812 362.507812 3.339844 361.785156 2.953125 C 361.0625 2.566406 360.324219 2.214844 359.566406 1.902344 C 358.8125 1.589844 358.039062 1.3125 357.257812 1.078125 C 356.472656 0.839844 355.679688 0.640625 354.878906 0.480469 C 354.074219 0.320312 353.265625 0.199219 352.449219 0.121094 C 351.636719 0.0390625 350.820312 0 350 0 Z M 362.5 50 C 362.5 50.820312 362.417969 51.632812 362.257812 52.4375 C 362.101562 53.242188 361.863281 54.023438 361.546875 54.785156 C 361.234375 55.542969 360.847656 56.261719 360.394531 56.945312 C 359.9375 57.628906 359.417969 58.257812 358.839844 58.839844 C 358.257812 59.417969 357.628906 59.9375 356.945312 60.394531 C 356.261719 60.847656 355.542969 61.234375 354.785156 61.546875 C 354.023438 61.863281 353.242188 62.101562 352.4375 62.261719 C 351.632812 62.417969 350.820312 62.5 350 62.5 C 349.179688 62.5 348.367188 62.417969 347.5625 62.261719 C 346.757812 62.101562 345.976562 61.863281 345.214844 61.546875 C 344.457031 61.234375 343.738281 60.847656 343.054688 60.394531 C 342.371094 59.9375 341.742188 59.417969 341.160156 58.839844 C 340.582031 58.257812 340.0625 57.628906 339.605469 56.945312 C 339.152344 56.261719 338.765625 55.542969 338.453125 54.785156 C 338.136719 54.023438 337.898438 53.242188 337.738281 52.4375 C 337.578125 51.632812 337.5 50.820312 337.5 50 L 337.5 25 C 337.5 24.179688 337.578125 23.367188 337.738281 22.5625 C 337.898438 21.757812 338.136719 20.976562 338.453125 20.214844 C 338.765625 19.457031 339.152344 18.738281 339.605469 18.054688 C 340.0625 17.371094 340.582031 16.742188 341.160156 16.160156 C 341.742188 15.582031 342.371094 15.0625 343.054688 14.605469 C 343.738281 14.152344 344.457031 13.765625 345.214844 13.453125 C 345.976562 13.136719 346.757812 12.898438 347.5625 12.738281 C 348.367188 12.578125 349.179688 12.5 350 12.5 C 350.820312 12.5 351.632812 12.578125 352.4375 12.738281 C 353.242188 12.898438 354.023438 13.136719 354.785156 13.453125 C 355.542969 13.765625 356.261719 14.152344 356.945312 14.605469 C 357.628906 15.0625 358.257812 15.582031 358.839844 16.160156 C 359.417969 16.742188 359.9375 17.371094 360.394531 18.054688 C 360.847656 18.738281 361.234375 19.457031 361.546875 20.214844 C 361.863281 20.976562 362.101562 21.757812 362.257812 22.5625 C 362.417969 23.367188 362.5 24.179688 362.5 25 Z M 362.5 50 " fill-opacity="1" fill-rule="nonzero"/><path fill="#005022" d="M 0 200 L 12.5 200 L 12.5 275 L 0 275 Z M 0 200 " fill-opacity="1" fill-rule="nonzero"/><path fill="#005022" d="M 50 225 L 50 250 C 50 250.820312 50.039062 251.636719 50.121094 252.449219 C 50.199219 253.265625 50.320312 254.074219 50.480469 254.878906 C 50.640625 255.679688 50.839844 256.472656 51.078125 257.257812 C 51.3125 258.039062 51.589844 258.8125 51.902344 259.566406 C 52.214844 260.324219 52.566406 261.0625 52.953125 261.785156 C 53.339844 262.507812 53.757812 263.207031 54.214844 263.890625 C 54.667969 264.570312 55.15625 265.226562 55.675781 265.859375 C 56.195312 266.492188 56.742188 267.097656 57.324219 267.675781 C 57.902344 268.257812 58.507812 268.804688 59.140625 269.324219 C 59.773438 269.84375 60.429688 270.332031 61.109375 270.785156 C 61.792969 271.242188 62.492188 271.660156 63.214844 272.046875 C 63.9375 272.433594 64.675781 272.785156 65.433594 273.097656 C 66.1875 273.410156 66.960938 273.6875 67.742188 273.921875 C 68.527344 274.160156 69.320312 274.359375 70.121094 274.519531 C 70.925781 274.679688 71.734375 274.800781 72.550781 274.878906 C 73.363281 274.960938 74.179688 275 75 275 C 75.820312 275 76.636719 274.960938 77.449219 274.878906 C 78.265625 274.800781 79.074219 274.679688 79.878906 274.519531 C 80.679688 274.359375 81.472656 274.160156 82.257812 273.921875 C 83.039062 273.6875 83.8125 273.410156 84.566406 273.097656 C 85.324219 272.785156 86.0625 272.433594 86.785156 272.046875 C 87.507812 271.660156 88.207031 271.242188 88.890625 270.785156 C 89.570312 270.332031 90.226562 269.84375 90.859375 269.324219 C 91.492188 268.804688 92.097656 268.257812 92.675781 267.675781 C 93.257812 267.097656 93.804688 266.492188 94.324219 265.859375 C 94.84375 265.226562 95.332031 264.570312 95.785156 263.890625 C 96.242188 263.207031 96.660156 262.507812 97.046875 261.785156 C 97.433594 261.0625 97.785156 260.324219 98.097656 259.566406 C 98.410156 258.8125 98.6875 258.039062 98.921875 257.257812 C 99.160156 256.472656 99.359375 255.679688 99.519531 254.878906 C 99.679688 254.074219 99.800781 253.265625 99.878906 252.449219 C 99.960938 251.636719 100 250.820312 100 250 L 100 225 C 100 224.179688 99.960938 223.363281 99.878906 222.550781 C 99.800781 221.734375 99.679688 220.925781 99.519531 220.121094 C 99.359375 219.320312 99.160156 218.527344 98.921875 217.742188 C 98.6875 216.960938 98.410156 216.1875 98.097656 215.433594 C 97.785156 214.675781 97.433594 213.9375 97.046875 213.214844 C 96.660156 212.492188 96.242188 211.792969 95.785156 211.109375 C 95.332031 210.429688 94.84375 209.773438 94.324219 209.140625 C 93.804688 208.507812 93.257812 207.902344 92.675781 207.324219 C 92.097656 206.742188 91.492188 206.195312 90.859375 205.675781 C 90.226562 205.15625 89.570312 204.667969 88.890625 204.214844 C 88.207031 203.757812 87.507812 203.339844 86.785156 202.953125 C 86.0625 202.566406 85.324219 202.214844 84.566406 201.902344 C 83.8125 201.589844 83.039062 201.3125 82.257812 201.078125 C 81.472656 200.839844 80.679688 200.640625 79.878906 200.480469 C 79.074219 200.320312 78.265625 200.199219 77.449219 200.121094 C 76.636719 200.039062 75.820312 200 75 200 C 74.179688 200 73.363281 200.039062 72.550781 200.121094 C 71.734375 200.199219 70.925781 200.320312 70.121094 200.480469 C 69.320312 200.640625 68.527344 200.839844 67.742188 201.078125 C 66.960938 201.3125 66.1875 201.589844 65.433594 201.902344 C 64.675781 202.214844 63.9375 202.566406 63.214844 202.953125 C 62.492188 203.339844 61.792969 203.757812 61.109375 204.214844 C 60.429688 204.667969 59.773438 205.15625 59.140625 205.675781 C 58.507812 206.195312 57.902344 206.742188 57.324219 207.324219 C 56.742188 207.902344 56.195312 208.507812 55.675781 209.140625 C 55.15625 209.773438 54.667969 210.429688 54.214844 211.109375 C 53.757812 211.792969 53.339844 212.492188 52.953125 213.214844 C 52.566406 213.9375 52.214844 214.675781 51.902344 215.433594 C 51.589844 216.1875 51.3125 216.960938 51.078125 217.742188 C 50.839844 218.527344 50.640625 219.320312 50.480469 220.121094 C 50.320312 220.925781 50.199219 221.734375 50.121094 222.550781 C 50.039062 223.363281 50 224.179688 50 225 Z M 87.5 225 L 87.5 250 C 87.5 250.820312 87.421875 251.632812 87.261719 252.4375 C 87.101562 253.242188 86.863281 254.023438 86.546875 254.785156 C 86.234375 255.542969 85.847656 256.261719 85.394531 256.945312 C 84.9375 257.628906 84.417969 258.257812 83.839844 258.839844 C 83.257812 259.417969 82.628906 259.9375 81.945312 260.394531 C 81.261719 260.847656 80.542969 261.234375 79.785156 261.546875 C 79.023438 261.863281 78.242188 262.101562 77.4375 262.261719 C 76.632812 262.417969 75.820312 262.5 75 262.5 C 74.179688 262.5 73.367188 262.417969 72.5625 262.261719 C 71.757812 262.101562 70.976562 261.863281 70.214844 261.546875 C 69.457031 261.234375 68.738281 260.847656 68.054688 260.394531 C 67.371094 259.9375 66.742188 259.417969 66.160156 258.839844 C 65.582031 258.257812 65.0625 257.628906 64.605469 256.945312 C 64.152344 256.261719 63.765625 255.542969 63.453125 254.785156 C 63.136719 254.023438 62.898438 253.242188 62.738281 252.4375 C 62.578125 251.632812 62.5 250.820312 62.5 250 L 62.5 225 C 62.5 224.179688 62.578125 223.367188 62.738281 222.5625 C 62.898438 221.757812 63.136719 220.976562 63.453125 220.214844 C 63.765625 219.457031 64.152344 218.738281 64.605469 218.054688 C 65.0625 217.371094 65.582031 216.742188 66.160156 216.160156 C 66.742188 215.582031 67.371094 215.0625 68.054688 214.605469 C 68.738281 214.152344 69.457031 213.765625 70.214844 213.453125 C 70.976562 213.136719 71.757812 212.898438 72.5625 212.738281 C 73.367188 212.578125 74.179688 212.5 75 212.5 C 75.820312 212.5 76.632812 212.578125 77.4375 212.738281 C 78.242188 212.898438 79.023438 213.136719 79.785156 213.453125 C 80.542969 213.765625 81.261719 214.152344 81.945312 214.605469 C 82.628906 215.0625 83.257812 215.582031 83.839844 216.160156 C 84.417969 216.742188 84.9375 217.371094 85.394531 218.054688 C 85.847656 218.738281 86.234375 219.457031 86.546875 220.214844 C 86.863281 220.976562 87.101562 221.757812 87.261719 222.5625 C 87.421875 223.367188 87.5 224.179688 87.5 225 Z M 87.5 225 " fill-opacity="1" fill-rule="nonzero"/><path fill="#005022" d="M 137.5 200 L 150 200 L 150 275 L 137.5 275 Z M 137.5 200 " fill-opacity="1" fill-rule="nonzero"/><path fill="#005022" d="M 187.5 225 L 187.5 250 C 187.5 250.820312 187.539062 251.636719 187.621094 252.449219 C 187.699219 253.265625 187.820312 254.074219 187.980469 254.878906 C 188.140625 255.679688 188.339844 256.472656 188.578125 257.257812 C 188.8125 258.039062 189.089844 258.8125 189.402344 259.566406 C 189.714844 260.324219 190.066406 261.0625 190.453125 261.785156 C 190.839844 262.507812 191.257812 263.207031 191.714844 263.890625 C 192.167969 264.570312 192.65625 265.226562 193.175781 265.859375 C 193.695312 266.492188 194.242188 267.097656 194.824219 267.675781 C 195.402344 268.257812 196.007812 268.804688 196.640625 269.324219 C 197.273438 269.84375 197.929688 270.332031 198.609375 270.785156 C 199.292969 271.242188 199.992188 271.660156 200.714844 272.046875 C 201.4375 272.433594 202.175781 272.785156 202.933594 273.097656 C 203.6875 273.410156 204.460938 273.6875 205.242188 273.921875 C 206.027344 274.160156 206.820312 274.359375 207.621094 274.519531 C 208.425781 274.679688 209.234375 274.800781 210.050781 274.878906 C 210.863281 274.960938 211.679688 275 212.5 275 C 213.320312 275 214.136719 274.960938 214.949219 274.878906 C 215.765625 274.800781 216.574219 274.679688 217.378906 274.519531 C 218.179688 274.359375 218.972656 274.160156 219.757812 273.921875 C 220.539062 273.6875 221.3125 273.410156 222.066406 273.097656 C 222.824219 272.785156 223.5625 272.433594 224.285156 272.046875 C 225.007812 271.660156 225.707031 271.242188 226.390625 270.785156 C 227.070312 270.332031 227.726562 269.84375 228.359375 269.324219 C 228.992188 268.804688 229.597656 268.257812 230.175781 267.675781 C 230.757812 267.097656 231.304688 266.492188 231.824219 265.859375 C 232.34375 265.226562 232.832031 264.570312 233.285156 263.890625 C 233.742188 263.207031 234.160156 262.507812 234.546875 261.785156 C 234.933594 261.0625 235.285156 260.324219 235.597656 259.566406 C 235.910156 258.8125 236.1875 258.039062 236.421875 257.257812 C 236.660156 256.472656 236.859375 255.679688 237.019531 254.878906 C 237.179688 254.074219 237.300781 253.265625 237.378906 252.449219 C 237.460938 251.636719 237.5 250.820312 237.5 250 L 237.5 225 C 237.5 224.179688 237.460938 223.363281 237.378906 222.550781 C 237.300781 221.734375 237.179688 220.925781 237.019531 220.121094 C 236.859375 219.320312 236.660156 218.527344 236.421875 217.742188 C 236.1875 216.960938 235.910156 216.1875 235.597656 215.433594 C 235.285156 214.675781 234.933594 213.9375 234.546875 213.214844 C 234.160156 212.492188 233.742188 211.792969 233.285156 211.109375 C 232.832031 210.429688 232.34375 209.773438 231.824219 209.140625 C 231.304688 208.507812 230.757812 207.902344 230.175781 207.324219 C 229.597656 206.742188 228.992188 206.195312 228.359375 205.675781 C 227.726562 205.15625 227.070312 204.667969 226.390625 204.214844 C 225.707031 203.757812 225.007812 203.339844 224.285156 202.953125 C 223.5625 202.566406 222.824219 202.214844 222.066406 201.902344 C 221.3125 201.589844 220.539062 201.3125 219.757812 201.078125 C 218.972656 200.839844 218.179688 200.640625 217.378906 200.480469 C 216.574219 200.320312 215.765625 200.199219 214.949219 200.121094 C 214.136719 200.039062 213.320312 200 212.5 200 C 211.679688 200 210.863281 200.039062 210.050781 200.121094 C 209.234375 200.199219 208.425781 200.320312 207.621094 200.480469 C 206.820312 200.640625 206.027344 200.839844 205.242188 201.078125 C 204.460938 201.3125 203.6875 201.589844 202.933594 201.902344 C 202.175781 202.214844 201.4375 202.566406 200.714844 202.953125 C 199.992188 203.339844 199.292969 203.757812 198.609375 204.214844 C 197.929688 204.667969 197.273438 205.15625 196.640625 205.675781 C 196.007812 206.195312 195.402344 206.742188 194.824219 207.324219 C 194.242188 207.902344 193.695312 208.507812 193.175781 209.140625 C 192.65625 209.773438 192.167969 210.429688 191.714844 211.109375 C 191.257812 211.792969 190.839844 212.492188 190.453125 213.214844 C 190.066406 213.9375 189.714844 214.675781 189.402344 215.433594 C 189.089844 216.1875 188.8125 216.960938 188.578125 217.742188 C 188.339844 218.527344 188.140625 219.320312 187.980469 220.121094 C 187.820312 220.925781 187.699219 221.734375 187.621094 222.550781 C 187.539062 223.363281 187.5 224.179688 187.5 225 Z M 225 225 L 225 250 C 225 250.820312 224.917969 251.632812 224.757812 252.4375 C 224.601562 253.242188 224.363281 254.023438 224.046875 254.785156 C 223.734375 255.542969 223.347656 256.261719 222.894531 256.945312 C 222.4375 257.628906 221.917969 258.257812 221.339844 258.839844 C 220.757812 259.417969 220.128906 259.9375 219.445312 260.394531 C 218.761719 260.847656 218.042969 261.234375 217.285156 261.546875 C 216.523438 261.863281 215.742188 262.101562 214.9375 262.261719 C 214.132812 262.417969 213.320312 262.5 212.5 262.5 C 211.679688 262.5 210.867188 262.417969 210.0625 262.261719 C 209.257812 262.101562 208.476562 261.863281 207.714844 261.546875 C 206.957031 261.234375 206.238281 260.847656 205.554688 260.394531 C 204.871094 259.9375 204.242188 259.417969 203.660156 258.839844 C 203.082031 258.257812 202.5625 257.628906 202.105469 256.945312 C 201.652344 256.261719 201.265625 255.542969 200.953125 254.785156 C 200.636719 254.023438 200.398438 253.242188 200.238281 252.4375 C 200.078125 251.632812 200 250.820312 200 250 L 200 225 C 200 224.179688 200.078125 223.367188 200.238281 222.5625 C 200.398438 221.757812 200.636719 220.976562 200.953125 220.214844 C 201.265625 219.457031 201.652344 218.738281 202.105469 218.054688 C 202.5625 217.371094 203.082031 216.742188 203.660156 216.160156 C 204.242188 215.582031 204.871094 215.0625 205.554688 214.605469 C 206.238281 214.152344 206.957031 213.765625 207.714844 213.453125 C 208.476562 213.136719 209.257812 212.898438 210.0625 212.738281 C 210.867188 212.578125 211.679688 212.5 212.5 212.5 C 213.320312 212.5 214.132812 212.578125 214.9375 212.738281 C 215.742188 212.898438 216.523438 213.136719 217.285156 213.453125 C 218.042969 213.765625 218.761719 214.152344 219.445312 214.605469 C 220.128906 215.0625 220.757812 215.582031 221.339844 216.160156 C 221.917969 216.742188 222.4375 217.371094 222.894531 218.054688 C 223.347656 218.738281 223.734375 219.457031 224.046875 220.214844 C 224.363281 220.976562 224.601562 221.757812 224.757812 222.5625 C 224.917969 223.367188 225 224.179688 225 225 Z M 225 225 " fill-opacity="1" fill-rule="nonzero"/><path fill="#005022" d="M 275 200 L 287.5 200 L 287.5 275 L 275 275 Z M 275 200 " fill-opacity="1" fill-rule="nonzero"/><path fill="#005022" d="M 350 200 C 349.179688 200 348.363281 200.039062 347.550781 200.121094 C 346.734375 200.199219 345.925781 200.320312 345.121094 200.480469 C 344.320312 200.640625 343.527344 200.839844 342.742188 201.078125 C 341.960938 201.3125 341.1875 201.589844 340.433594 201.902344 C 339.675781 202.214844 338.9375 202.566406 338.214844 202.953125 C 337.492188 203.339844 336.792969 203.757812 336.109375 204.214844 C 335.429688 204.667969 334.773438 205.15625 334.140625 205.675781 C 333.507812 206.195312 332.902344 206.742188 332.324219 207.324219 C 331.742188 207.902344 331.195312 208.507812 330.675781 209.140625 C 330.15625 209.773438 329.667969 210.429688 329.214844 211.109375 C 328.757812 211.792969 328.339844 212.492188 327.953125 213.214844 C 327.566406 213.9375 327.214844 214.675781 326.902344 215.433594 C 326.589844 216.1875 326.3125 216.960938 326.078125 217.742188 C 325.839844 218.527344 325.640625 219.320312 325.480469 220.121094 C 325.320312 220.925781 325.199219 221.734375 325.121094 222.550781 C 325.039062 223.363281 325 224.179688 325 225 L 325 250 C 325 250.820312 325.039062 251.636719 325.121094 252.449219 C 325.199219 253.265625 325.320312 254.074219 325.480469 254.878906 C 325.640625 255.679688 325.839844 256.472656 326.078125 257.257812 C 326.3125 258.039062 326.589844 258.8125 326.902344 259.566406 C 327.214844 260.324219 327.566406 261.0625 327.953125 261.785156 C 328.335938 262.507812 328.757812 263.207031 329.214844 263.890625 C 329.667969 264.570312 330.15625 265.226562 330.675781 265.859375 C 331.195312 266.492188 331.742188 267.097656 332.320312 267.675781 C 332.902344 268.257812 333.507812 268.804688 334.140625 269.324219 C 334.773438 269.84375 335.429688 270.332031 336.109375 270.785156 C 336.792969 271.242188 337.492188 271.660156 338.214844 272.046875 C 338.9375 272.433594 339.675781 272.785156 340.433594 273.097656 C 341.1875 273.410156 341.960938 273.6875 342.742188 273.921875 C 343.527344 274.160156 344.320312 274.359375 345.121094 274.519531 C 345.925781 274.679688 346.734375 274.800781 347.550781 274.878906 C 348.363281 274.960938 349.179688 275 350 275 C 350.820312 275 351.636719 274.960938 352.449219 274.878906 C 353.265625 274.800781 354.074219 274.679688 354.878906 274.519531 C 355.679688 274.359375 356.472656 274.160156 357.257812 273.921875 C 358.039062 273.6875 358.8125 273.410156 359.566406 273.097656 C 360.324219 272.785156 361.0625 272.433594 361.785156 272.046875 C 362.507812 271.660156 363.207031 271.242188 363.890625 270.785156 C 364.570312 270.332031 365.226562 269.84375 365.859375 269.324219 C 366.492188 268.804688 367.097656 268.257812 367.675781 267.675781 C 368.257812 267.097656 368.804688 266.492188 369.324219 265.859375 C 369.84375 265.226562 370.332031 264.570312 370.785156 263.890625 C 371.242188 263.207031 371.660156 262.507812 372.046875 261.785156 C 372.433594 261.0625 372.785156 260.324219 373.097656 259.566406 C 373.410156 258.8125 373.6875 258.039062 373.921875 257.257812 C 374.160156 256.472656 374.359375 255.679688 374.519531 254.878906 C 374.679688 254.074219 374.800781 253.265625 374.878906 252.449219 C 374.960938 251.636719 375 250.820312 375 250 L 375 225 C 375 224.179688 374.960938 223.363281 374.878906 222.550781 C 374.800781 221.734375 374.679688 220.925781 374.519531 220.121094 C 374.359375 219.320312 374.160156 218.527344 373.921875 217.742188 C 373.6875 216.960938 373.410156 216.1875 373.097656 215.433594 C 372.785156 214.675781 372.433594 213.9375 372.046875 213.214844 C 371.660156 212.492188 371.242188 211.792969 370.785156 211.109375 C 370.332031 210.429688 369.84375 209.773438 369.324219 209.140625 C 368.804688 208.507812 368.257812 207.902344 367.675781 207.324219 C 367.097656 206.742188 366.492188 206.195312 365.859375 205.675781 C 365.226562 205.15625 364.570312 204.667969 363.890625 204.214844 C 363.207031 203.757812 362.507812 203.339844 361.785156 202.953125 C 361.0625 202.566406 360.324219 202.214844 359.566406 201.902344 C 358.8125 201.589844 358.039062 201.3125 357.257812 201.078125 C 356.472656 200.839844 355.679688 200.640625 354.878906 200.480469 C 354.074219 200.320312 353.265625 200.199219 352.449219 200.121094 C 351.636719 200.039062 350.820312 200 350 200 Z M 362.5 250 C 362.5 250.820312 362.417969 251.632812 362.257812 252.4375 C 362.101562 253.242188 361.863281 254.023438 361.546875 254.785156 C 361.234375 255.542969 360.847656 256.261719 360.394531 256.945312 C 359.9375 257.628906 359.417969 258.257812 358.839844 258.839844 C 358.257812 259.417969 357.628906 259.9375 356.945312 260.394531 C 356.261719 260.847656 355.542969 261.234375 354.785156 261.546875 C 354.023438 261.863281 353.242188 262.101562 352.4375 262.261719 C 351.632812 262.417969 350.820312 262.5 350 262.5 C 349.179688 262.5 348.367188 262.417969 347.5625 262.261719 C 346.757812 262.101562 345.976562 261.863281 345.214844 261.546875 C 344.457031 261.234375 343.738281 260.847656 343.054688 260.394531 C 342.371094 259.9375 341.742188 259.417969 341.160156 258.839844 C 340.582031 258.257812 340.0625 257.628906 339.605469 256.945312 C 339.152344 256.261719 338.765625 255.542969 338.453125 254.785156 C 338.136719 254.023438 337.898438 253.242188 337.738281 252.4375 C 337.578125 251.632812 337.5 250.820312 337.5 250 L 337.5 225 C 337.5 224.179688 337.578125 223.367188 337.738281 222.5625 C 337.898438 221.757812 338.136719 220.976562 338.453125 220.214844 C 338.765625 219.457031 339.152344 218.738281 339.605469 218.054688 C 340.0625 217.371094 340.582031 216.742188 341.160156 216.160156 C 341.742188 215.582031 342.371094 215.0625 343.054688 214.605469 C 343.738281 214.152344 344.457031 213.765625 345.214844 213.453125 C 345.976562 213.136719 346.757812 212.898438 347.5625 212.738281 C 348.367188 212.578125 349.179688 212.5 350 212.5 C 350.820312 212.5 351.632812 212.578125 352.4375 212.738281 C 353.242188 212.898438 354.023438 213.136719 354.785156 213.453125 C 355.542969 213.765625 356.261719 214.152344 356.945312 214.605469 C 357.628906 215.0625 358.257812 215.582031 358.839844 216.160156 C 359.417969 216.742188 359.9375 217.371094 360.394531 218.054688 C 360.847656 218.738281 361.234375 219.457031 361.546875 220.214844 C 361.863281 220.976562 362.101562 221.757812 362.257812 222.5625 C 362.417969 223.367188 362.5 224.179688 362.5 225 Z M 362.5 250 " fill-opacity="1" fill-rule="nonzero"/><path fill="#005022" d="M 25 175 C 25.820312 175 26.636719 174.960938 27.449219 174.878906 C 28.265625 174.800781 29.074219 174.679688 29.878906 174.519531 C 30.679688 174.359375 31.472656 174.160156 32.257812 173.921875 C 33.039062 173.6875 33.8125 173.410156 34.566406 173.097656 C 35.324219 172.785156 36.0625 172.433594 36.785156 172.046875 C 37.507812 171.660156 38.207031 171.242188 38.890625 170.785156 C 39.570312 170.332031 40.226562 169.84375 40.859375 169.324219 C 41.492188 168.804688 42.097656 168.257812 42.675781 167.675781 C 43.257812 167.097656 43.804688 166.492188 44.324219 165.859375 C 44.84375 165.226562 45.332031 164.570312 45.785156 163.890625 C 46.242188 163.207031 46.660156 162.507812 47.046875 161.785156 C 47.433594 161.0625 47.785156 160.324219 48.097656 159.566406 C 48.410156 158.8125 48.6875 158.039062 48.921875 157.257812 C 49.160156 156.472656 49.359375 155.679688 49.519531 154.878906 C 49.679688 154.074219 49.800781 153.265625 49.878906 152.449219 C 49.960938 151.636719 50 150.820312 50 150 L 50 125 C 50 124.179688 49.960938 123.363281 49.878906 122.550781 C 49.800781 121.734375 49.679688 120.925781 49.519531 120.121094 C 49.359375 119.320312 49.160156 118.527344 48.921875 117.742188 C 48.6875 116.960938 48.410156 116.1875 48.097656 115.433594 C 47.785156 114.675781 47.433594 113.9375 47.046875 113.214844 C 46.660156 112.492188 46.242188 111.792969 45.785156 111.109375 C 45.332031 110.429688 44.84375 109.773438 44.324219 109.140625 C 43.804688 108.507812 43.257812 107.902344 42.675781 107.324219 C 42.097656 106.742188 41.492188 106.195312 40.859375 105.675781 C 40.226562 105.15625 39.570312 104.667969 38.890625 104.214844 C 38.207031 103.757812 37.507812 103.339844 36.785156 102.953125 C 36.0625 102.566406 35.324219 102.214844 34.566406 101.902344 C 33.8125 101.589844 33.039062 101.3125 32.257812 101.078125 C 31.472656 100.839844 30.679688 100.640625 29.878906 100.480469 C 29.074219 100.320312 28.265625 100.199219 27.449219 100.121094 C 26.636719 100.039062 25.820312 100 25 100 C 24.179688 100 23.363281 100.039062 22.550781 100.121094 C 21.734375 100.199219 20.925781 100.320312 20.121094 100.480469 C 19.320312 100.640625 18.527344 100.839844 17.742188 101.078125 C 16.960938 101.3125 16.1875 101.589844 15.433594 101.902344 C 14.675781 102.214844 13.9375 102.566406 13.214844 102.953125 C 12.492188 103.339844 11.792969 103.757812 11.109375 104.214844 C 10.429688 104.667969 9.773438 105.15625 9.140625 105.675781 C 8.507812 106.195312 7.902344 106.742188 7.324219 107.324219 C 6.742188 107.902344 6.195312 108.507812 5.675781 109.140625 C 5.15625 109.773438 4.667969 110.429688 4.214844 111.109375 C 3.757812 111.792969 3.339844 112.492188 2.953125 113.214844 C 2.566406 113.9375 2.214844 114.675781 1.902344 115.433594 C 1.589844 116.1875 1.3125 116.960938 1.078125 117.742188 C 0.839844 118.527344 0.640625 119.320312 0.480469 120.121094 C 0.320312 120.925781 0.199219 121.734375 0.121094 122.550781 C 0.0390625 123.363281 0 124.179688 0 125 L 0 150 C 0 150.820312 0.0390625 151.636719 0.121094 152.449219 C 0.199219 153.265625 0.320312 154.074219 0.480469 154.878906 C 0.640625 155.679688 0.839844 156.472656 1.078125 157.257812 C 1.3125 158.039062 1.589844 158.8125 1.902344 159.566406 C 2.214844 160.324219 2.566406 161.0625 2.953125 161.785156 C 3.339844 162.507812 3.757812 163.207031 4.214844 163.890625 C 4.667969 164.570312 5.15625 165.226562 5.675781 165.859375 C 6.195312 166.492188 6.742188 167.097656 7.324219 167.675781 C 7.902344 168.257812 8.507812 168.804688 9.140625 169.324219 C 9.773438 169.84375 10.429688 170.332031 11.109375 170.785156 C 11.792969 171.242188 12.492188 171.660156 13.214844 172.046875 C 13.9375 172.433594 14.675781 172.785156 15.433594 173.097656 C 16.1875 173.410156 16.960938 173.6875 17.742188 173.921875 C 18.527344 174.160156 19.320312 174.359375 20.121094 174.519531 C 20.925781 174.679688 21.734375 174.800781 22.550781 174.878906 C 23.363281 174.960938 24.179688 175 25 175 Z M 12.5 125 C 12.5 124.179688 12.578125 123.367188 12.738281 122.5625 C 12.898438 121.757812 13.136719 120.976562 13.453125 120.214844 C 13.765625 119.457031 14.152344 118.738281 14.605469 118.054688 C 15.0625 117.371094 15.582031 116.742188 16.160156 116.160156 C 16.742188 115.582031 17.371094 115.0625 18.054688 114.605469 C 18.738281 114.152344 19.457031 113.765625 20.214844 113.453125 C 20.976562 113.136719 21.757812 112.898438 22.5625 112.738281 C 23.367188 112.578125 24.179688 112.5 25 112.5 C 25.820312 112.5 26.632812 112.578125 27.4375 112.738281 C 28.242188 112.898438 29.023438 113.136719 29.785156 113.453125 C 30.542969 113.765625 31.261719 114.152344 31.945312 114.605469 C 32.628906 115.0625 33.257812 115.582031 33.839844 116.160156 C 34.417969 116.742188 34.9375 117.371094 35.394531 118.054688 C 35.847656 118.738281 36.234375 119.457031 36.546875 120.214844 C 36.863281 120.976562 37.101562 121.757812 37.261719 122.5625 C 37.421875 123.367188 37.5 124.179688 37.5 125 L 37.5 150 C 37.5 150.820312 37.421875 151.632812 37.261719 152.4375 C 37.101562 153.242188 36.863281 154.023438 36.546875 154.785156 C 36.234375 155.542969 35.847656 156.261719 35.394531 156.945312 C 34.9375 157.628906 34.417969 158.257812 33.839844 158.839844 C 33.257812 159.417969 32.628906 159.9375 31.945312 160.394531 C 31.261719 160.847656 30.542969 161.234375 29.785156 161.546875 C 29.023438 161.863281 28.242188 162.101562 27.4375 162.261719 C 26.632812 162.417969 25.820312 162.5 25 162.5 C 24.179688 162.5 23.367188 162.417969 22.5625 162.261719 C 21.757812 162.101562 20.976562 161.863281 20.214844 161.546875 C 19.457031 161.234375 18.738281 160.847656 18.054688 160.394531 C 17.371094 159.9375 16.742188 159.417969 16.160156 158.839844 C 15.582031 158.257812 15.0625 157.628906 14.605469 156.945312 C 14.152344 156.261719 13.765625 155.542969 13.453125 154.785156 C 13.136719 154.023438 12.898438 153.242188 12.738281 152.4375 C 12.578125 151.632812 12.5 150.820312 12.5 150 Z M 12.5 125 " fill-opacity="1" fill-rule="nonzero"/><path fill="#005022" d="M 87.5 100 L 100 100 L 100 175 L 87.5 175 Z M 87.5 100 " fill-opacity="1" fill-rule="nonzero"/><path fill="#005022" d="M 162.5 175 C 163.320312 175 164.136719 174.960938 164.949219 174.878906 C 165.765625 174.800781 166.574219 174.679688 167.378906 174.519531 C 168.179688 174.359375 168.972656 174.160156 169.757812 173.921875 C 170.539062 173.6875 171.3125 173.410156 172.066406 173.097656 C 172.824219 172.785156 173.5625 172.433594 174.285156 172.046875 C 175.007812 171.660156 175.707031 171.242188 176.390625 170.785156 C 177.070312 170.332031 177.726562 169.84375 178.359375 169.324219 C 178.992188 168.804688 179.597656 168.257812 180.175781 167.675781 C 180.757812 167.097656 181.304688 166.492188 181.824219 165.859375 C 182.34375 165.226562 182.832031 164.570312 183.285156 163.890625 C 183.742188 163.207031 184.160156 162.507812 184.546875 161.785156 C 184.933594 161.0625 185.285156 160.324219 185.597656 159.566406 C 185.910156 158.8125 186.1875 158.039062 186.421875 157.257812 C 186.660156 156.472656 186.859375 155.679688 187.019531 154.878906 C 187.179688 154.074219 187.300781 153.265625 187.378906 152.449219 C 187.460938 151.636719 187.5 150.820312 187.5 150 L 187.5 125 C 187.5 124.179688 187.460938 123.363281 187.378906 122.550781 C 187.300781 121.734375 187.179688 120.925781 187.019531 120.121094 C 186.859375 119.320312 186.660156 118.527344 186.421875 117.742188 C 186.1875 116.960938 185.910156 116.1875 185.597656 115.433594 C 185.285156 114.675781 184.933594 113.9375 184.546875 113.214844 C 184.160156 112.492188 183.742188 111.792969 183.285156 111.109375 C 182.832031 110.429688 182.34375 109.773438 181.824219 109.140625 C 181.304688 108.507812 180.757812 107.902344 180.175781 107.324219 C 179.597656 106.742188 178.992188 106.195312 178.359375 105.675781 C 177.726562 105.15625 177.070312 104.667969 176.390625 104.214844 C 175.707031 103.757812 175.007812 103.339844 174.285156 102.953125 C 173.5625 102.566406 172.824219 102.214844 172.066406 101.902344 C 171.3125 101.589844 170.539062 101.3125 169.757812 101.078125 C 168.972656 100.839844 168.179688 100.640625 167.378906 100.480469 C 166.574219 100.320312 165.765625 100.199219 164.949219 100.121094 C 164.136719 100.039062 163.320312 100 162.5 100 C 161.679688 100 160.863281 100.039062 160.050781 100.121094 C 159.234375 100.199219 158.425781 100.320312 157.621094 100.480469 C 156.820312 100.640625 156.027344 100.839844 155.242188 101.078125 C 154.460938 101.3125 153.6875 101.589844 152.933594 101.902344 C 152.175781 102.214844 151.4375 102.566406 150.714844 102.953125 C 149.992188 103.339844 149.292969 103.757812 148.609375 104.214844 C 147.929688 104.667969 147.273438 105.15625 146.640625 105.675781 C 146.007812 106.195312 145.402344 106.742188 144.824219 107.324219 C 144.242188 107.902344 143.695312 108.507812 143.175781 109.140625 C 142.65625 109.773438 142.167969 110.429688 141.714844 111.109375 C 141.257812 111.792969 140.839844 112.492188 140.453125 113.214844 C 140.066406 113.9375 139.714844 114.675781 139.402344 115.433594 C 139.089844 116.1875 138.8125 116.960938 138.578125 117.742188 C 138.339844 118.527344 138.140625 119.320312 137.980469 120.121094 C 137.820312 120.925781 137.699219 121.734375 137.621094 122.550781 C 137.539062 123.363281 137.5 124.179688 137.5 125 L 137.5 150 C 137.5 150.820312 137.539062 151.636719 137.621094 152.449219 C 137.699219 153.265625 137.820312 154.074219 137.980469 154.878906 C 138.140625 155.679688 138.339844 156.472656 138.578125 157.257812 C 138.8125 158.039062 139.089844 158.8125 139.402344 159.566406 C 139.714844 160.324219 140.066406 161.0625 140.453125 161.785156 C 140.839844 162.507812 141.257812 163.207031 141.714844 163.890625 C 142.167969 164.570312 142.65625 165.226562 143.175781 165.859375 C 143.695312 166.492188 144.242188 167.097656 144.824219 167.675781 C 145.402344 168.257812 146.007812 168.804688 146.640625 169.324219 C 147.273438 169.84375 147.929688 170.332031 148.609375 170.785156 C 149.292969 171.242188 149.992188 171.660156 150.714844 172.046875 C 151.4375 172.433594 152.175781 172.785156 152.933594 173.097656 C 153.6875 173.410156 154.460938 173.6875 155.242188 173.921875 C 156.027344 174.160156 156.820312 174.359375 157.621094 174.519531 C 158.425781 174.679688 159.234375 174.800781 160.050781 174.878906 C 160.863281 174.960938 161.679688 175 162.5 175 Z M 150 125 C 150 124.179688 150.078125 123.367188 150.238281 122.5625 C 150.398438 121.757812 150.636719 120.976562 150.953125 120.214844 C 151.265625 119.457031 151.652344 118.738281 152.105469 118.054688 C 152.5625 117.371094 153.082031 116.742188 153.660156 116.160156 C 154.242188 115.582031 154.871094 115.0625 155.554688 114.605469 C 156.238281 114.152344 156.957031 113.765625 157.714844 113.453125 C 158.476562 113.136719 159.257812 112.898438 160.0625 112.738281 C 160.867188 112.578125 161.679688 112.5 162.5 112.5 C 163.320312 112.5 164.132812 112.578125 164.9375 112.738281 C 165.742188 112.898438 166.523438 113.136719 167.285156 113.453125 C 168.042969 113.765625 168.761719 114.152344 169.445312 114.605469 C 170.128906 115.0625 170.757812 115.582031 171.339844 116.160156 C 171.917969 116.742188 172.4375 117.371094 172.894531 118.054688 C 173.347656 118.738281 173.734375 119.457031 174.046875 120.214844 C 174.363281 120.976562 174.601562 121.757812 174.761719 122.5625 C 174.917969 123.367188 175 124.179688 175 125 L 175 150 C 175 150.820312 174.917969 151.632812 174.761719 152.4375 C 174.601562 153.242188 174.363281 154.023438 174.046875 154.785156 C 173.734375 155.542969 173.347656 156.261719 172.894531 156.945312 C 172.4375 157.628906 171.917969 158.257812 171.339844 158.839844 C 170.757812 159.417969 170.128906 159.9375 169.445312 160.394531 C 168.761719 160.847656 168.042969 161.234375 167.285156 161.546875 C 166.523438 161.863281 165.742188 162.101562 164.9375 162.261719 C 164.132812 162.417969 163.320312 162.5 162.5 162.5 C 161.679688 162.5 160.867188 162.417969 160.0625 162.261719 C 159.257812 162.101562 158.476562 161.863281 157.714844 161.546875 C 156.957031 161.234375 156.238281 160.847656 155.554688 160.394531 C 154.871094 159.9375 154.242188 159.417969 153.660156 158.839844 C 153.082031 158.257812 152.5625 157.628906 152.105469 156.945312 C 151.652344 156.261719 151.265625 155.542969 150.953125 154.785156 C 150.636719 154.023438 150.398438 153.242188 150.238281 152.4375 C 150.078125 151.632812 150 150.820312 150 150 Z M 150 125 " fill-opacity="1" fill-rule="nonzero"/><path fill="#005022" d="M 225 100 L 237.5 100 L 237.5 175 L 225 175 Z M 225 100 " fill-opacity="1" fill-rule="nonzero"/><path fill="#005022" d="M 362.5 100 L 375 100 L 375 175 L 362.5 175 Z M 362.5 100 " fill-opacity="1" fill-rule="nonzero"/><path fill="#005022" d="M 300 175 C 300.820312 175 301.636719 174.960938 302.449219 174.878906 C 303.265625 174.800781 304.074219 174.679688 304.878906 174.519531 C 305.679688 174.359375 306.472656 174.160156 307.257812 173.921875 C 308.039062 173.6875 308.8125 173.410156 309.566406 173.097656 C 310.324219 172.785156 311.0625 172.433594 311.785156 172.046875 C 312.507812 171.660156 313.207031 171.242188 313.890625 170.785156 C 314.570312 170.332031 315.226562 169.84375 315.859375 169.324219 C 316.492188 168.804688 317.097656 168.257812 317.675781 167.675781 C 318.257812 167.097656 318.804688 166.492188 319.324219 165.859375 C 319.84375 165.226562 320.332031 164.570312 320.785156 163.890625 C 321.242188 163.207031 321.660156 162.507812 322.046875 161.785156 C 322.433594 161.0625 322.785156 160.324219 323.097656 159.566406 C 323.410156 158.8125 323.6875 158.039062 323.921875 157.257812 C 324.160156 156.472656 324.359375 155.679688 324.519531 154.878906 C 324.679688 154.074219 324.800781 153.265625 324.878906 152.449219 C 324.960938 151.636719 325 150.820312 325 150 L 325 125 C 325 124.179688 324.960938 123.363281 324.878906 122.550781 C 324.800781 121.734375 324.679688 120.925781 324.519531 120.121094 C 324.359375 119.320312 324.160156 118.527344 323.921875 117.742188 C 323.6875 116.960938 323.410156 116.1875 323.097656 115.433594 C 322.785156 114.675781 322.433594 113.9375 322.046875 113.214844 C 321.660156 112.492188 321.242188 111.792969 320.785156 111.109375 C 320.332031 110.429688 319.84375 109.773438 319.324219 109.140625 C 318.804688 108.507812 318.257812 107.902344 317.675781 107.324219 C 317.097656 106.742188 316.492188 106.195312 315.859375 105.675781 C 315.226562 105.15625 314.570312 104.667969 313.890625 104.214844 C 313.207031 103.757812 312.507812 103.339844 311.785156 102.953125 C 311.0625 102.566406 310.324219 102.214844 309.566406 101.902344 C 308.8125 101.589844 308.039062 101.3125 307.257812 101.078125 C 306.472656 100.839844 305.679688 100.640625 304.878906 100.480469 C 304.074219 100.320312 303.265625 100.199219 302.449219 100.121094 C 301.636719 100.039062 300.820312 100 300 100 C 299.179688 100 298.363281 100.039062 297.550781 100.121094 C 296.734375 100.199219 295.925781 100.320312 295.121094 100.480469 C 294.320312 100.640625 293.527344 100.839844 292.742188 101.078125 C 291.960938 101.3125 291.1875 101.589844 290.433594 101.902344 C 289.675781 102.214844 288.9375 102.566406 288.214844 102.953125 C 287.492188 103.339844 286.792969 103.757812 286.109375 104.214844 C 285.429688 104.667969 284.773438 105.15625 284.140625 105.675781 C 283.507812 106.195312 282.902344 106.742188 282.324219 107.324219 C 281.742188 107.902344 281.195312 108.507812 280.675781 109.140625 C 280.15625 109.773438 279.667969 110.429688 279.214844 111.109375 C 278.757812 111.792969 278.339844 112.492188 277.953125 113.214844 C 277.566406 113.9375 277.214844 114.675781 276.902344 115.433594 C 276.589844 116.1875 276.3125 116.960938 276.078125 117.742188 C 275.839844 118.527344 275.640625 119.320312 275.480469 120.121094 C 275.320312 120.925781 275.199219 121.734375 275.121094 122.550781 C 275.039062 123.363281 275 124.179688 275 125 L 275 150 C 275 150.820312 275.039062 151.636719 275.121094 152.449219 C 275.199219 153.265625 275.320312 154.074219 275.480469 154.878906 C 275.640625 155.679688 275.839844 156.472656 276.078125 157.257812 C 276.3125 158.039062 276.589844 158.8125 276.902344 159.566406 C 277.214844 160.324219 277.566406 161.0625 277.953125 161.785156 C 278.339844 162.507812 278.757812 163.207031 279.214844 163.890625 C 279.667969 164.570312 280.15625 165.226562 280.675781 165.859375 C 281.195312 166.492188 281.742188 167.097656 282.324219 167.675781 C 282.902344 168.257812 283.507812 168.804688 284.140625 169.324219 C 284.773438 169.84375 285.429688 170.332031 286.109375 170.785156 C 286.792969 171.242188 287.492188 171.660156 288.214844 172.046875 C 288.9375 172.433594 289.675781 172.785156 290.433594 173.097656 C 291.1875 173.410156 291.960938 173.6875 292.742188 173.921875 C 293.527344 174.160156 294.320312 174.359375 295.121094 174.519531 C 295.925781 174.679688 296.734375 174.800781 297.550781 174.878906 C 298.363281 174.960938 299.179688 175 300 175 Z M 287.5 125 C 287.5 124.179688 287.578125 123.367188 287.738281 122.5625 C 287.898438 121.757812 288.136719 120.976562 288.453125 120.214844 C 288.765625 119.457031 289.152344 118.738281 289.605469 118.054688 C 290.0625 117.371094 290.582031 116.742188 291.160156 116.160156 C 291.742188 115.582031 292.371094 115.0625 293.054688 114.605469 C 293.738281 114.152344 294.457031 113.765625 295.214844 113.453125 C 295.976562 113.136719 296.757812 112.898438 297.5625 112.738281 C 298.367188 112.578125 299.179688 112.5 300 112.5 C 300.820312 112.5 301.632812 112.578125 302.4375 112.738281 C 303.242188 112.898438 304.023438 113.136719 304.785156 113.453125 C 305.542969 113.765625 306.261719 114.152344 306.945312 114.605469 C 307.628906 115.0625 308.257812 115.582031 308.839844 116.160156 C 309.417969 116.742188 309.9375 117.371094 310.394531 118.054688 C 310.847656 118.738281 311.234375 119.457031 311.546875 120.214844 C 311.863281 120.976562 312.097656 121.757812 312.257812 122.5625 C 312.417969 123.367188 312.5 124.179688 312.5 125 L 312.5 150 C 312.5 150.820312 312.417969 151.632812 312.257812 152.4375 C 312.101562 153.242188 311.863281 154.023438 311.546875 154.785156 C 311.234375 155.542969 310.847656 156.261719 310.394531 156.945312 C 309.9375 157.628906 309.417969 158.257812 308.839844 158.839844 C 308.257812 159.417969 307.628906 159.9375 306.945312 160.394531 C 306.261719 160.847656 305.542969 161.234375 304.785156 161.546875 C 304.023438 161.863281 303.242188 162.101562 302.4375 162.261719 C 301.632812 162.417969 300.820312 162.5 300 162.5 C 299.179688 162.5 298.367188 162.417969 297.5625 162.261719 C 296.757812 162.101562 295.976562 161.863281 295.214844 161.546875 C 294.457031 161.234375 293.738281 160.847656 293.054688 160.394531 C 292.371094 159.9375 291.742188 159.417969 291.160156 158.839844 C 290.582031 158.257812 290.0625 157.628906 289.605469 156.945312 C 289.152344 156.261719 288.765625 155.542969 288.453125 154.785156 C 288.136719 154.023438 287.898438 153.242188 287.738281 152.4375 C 287.578125 151.632812 287.5 150.820312 287.5 150 Z M 287.5 125 " fill-opacity="1" fill-rule="nonzero"/><path fill="#005022" d="M 25 375 C 25.820312 375 26.636719 374.960938 27.449219 374.878906 C 28.265625 374.800781 29.074219 374.679688 29.878906 374.519531 C 30.679688 374.359375 31.472656 374.160156 32.257812 373.921875 C 33.039062 373.6875 33.8125 373.410156 34.566406 373.097656 C 35.324219 372.785156 36.0625 372.433594 36.785156 372.046875 C 37.507812 371.660156 38.207031 371.242188 38.890625 370.785156 C 39.570312 370.332031 40.226562 369.84375 40.859375 369.324219 C 41.492188 368.804688 42.097656 368.257812 42.675781 367.675781 C 43.257812 367.097656 43.804688 366.492188 44.324219 365.859375 C 44.84375 365.226562 45.332031 364.570312 45.785156 363.890625 C 46.242188 363.207031 46.660156 362.507812 47.046875 361.785156 C 47.433594 361.0625 47.785156 360.324219 48.097656 359.566406 C 48.410156 358.8125 48.6875 358.039062 48.921875 357.257812 C 49.160156 356.472656 49.359375 355.679688 49.519531 354.878906 C 49.679688 354.074219 49.800781 353.265625 49.878906 352.449219 C 49.960938 351.636719 50 350.820312 50 350 L 50 325 C 50 324.179688 49.960938 323.363281 49.878906 322.550781 C 49.800781 321.734375 49.679688 320.925781 49.519531 320.121094 C 49.359375 319.320312 49.160156 318.527344 48.921875 317.742188 C 48.6875 316.960938 48.410156 316.1875 48.097656 315.433594 C 47.785156 314.675781 47.433594 313.9375 47.046875 313.214844 C 46.660156 312.492188 46.242188 311.792969 45.785156 311.109375 C 45.332031 310.429688 44.84375 309.773438 44.324219 309.140625 C 43.804688 308.507812 43.257812 307.902344 42.675781 307.324219 C 42.097656 306.742188 41.492188 306.195312 40.859375 305.675781 C 40.226562 305.15625 39.570312 304.667969 38.890625 304.214844 C 38.207031 303.757812 37.507812 303.339844 36.785156 302.953125 C 36.0625 302.566406 35.324219 302.214844 34.566406 301.902344 C 33.8125 301.589844 33.039062 301.3125 32.257812 301.078125 C 31.472656 300.839844 30.679688 300.640625 29.878906 300.480469 C 29.074219 300.320312 28.265625 300.199219 27.449219 300.121094 C 26.636719 300.039062 25.820312 300 25 300 C 24.179688 300 23.363281 300.039062 22.550781 300.121094 C 21.734375 300.199219 20.925781 300.320312 20.121094 300.480469 C 19.320312 300.640625 18.527344 300.839844 17.742188 301.078125 C 16.960938 301.3125 16.1875 301.589844 15.433594 301.902344 C 14.675781 302.214844 13.9375 302.566406 13.214844 302.953125 C 12.492188 303.339844 11.792969 303.757812 11.109375 304.214844 C 10.429688 304.667969 9.773438 305.15625 9.140625 305.675781 C 8.507812 306.195312 7.902344 306.742188 7.324219 307.324219 C 6.742188 307.902344 6.195312 308.507812 5.675781 309.140625 C 5.15625 309.773438 4.667969 310.429688 4.214844 311.109375 C 3.757812 311.792969 3.339844 312.492188 2.953125 313.214844 C 2.566406 313.9375 2.214844 314.675781 1.902344 315.433594 C 1.589844 316.1875 1.3125 316.960938 1.078125 317.742188 C 0.839844 318.527344 0.640625 319.320312 0.480469 320.121094 C 0.320312 320.925781 0.199219 321.734375 0.121094 322.550781 C 0.0390625 323.363281 0 324.179688 0 325 L 0 350 C 0 350.820312 0.0390625 351.636719 0.121094 352.449219 C 0.199219 353.265625 0.320312 354.074219 0.480469 354.878906 C 0.640625 355.679688 0.839844 356.472656 1.078125 357.257812 C 1.3125 358.039062 1.589844 358.8125 1.902344 359.566406 C 2.214844 360.324219 2.566406 361.0625 2.953125 361.785156 C 3.339844 362.507812 3.757812 363.207031 4.214844 363.890625 C 4.667969 364.570312 5.15625 365.226562 5.675781 365.859375 C 6.195312 366.492188 6.742188 367.097656 7.324219 367.675781 C 7.902344 368.257812 8.507812 368.804688 9.140625 369.324219 C 9.773438 369.84375 10.429688 370.332031 11.109375 370.785156 C 11.792969 371.242188 12.492188 371.660156 13.214844 372.046875 C 13.9375 372.433594 14.675781 372.785156 15.433594 373.097656 C 16.1875 373.410156 16.960938 373.6875 17.742188 373.921875 C 18.527344 374.160156 19.320312 374.359375 20.121094 374.519531 C 20.925781 374.679688 21.734375 374.800781 22.550781 374.878906 C 23.363281 374.960938 24.179688 375 25 375 Z M 12.5 325 C 12.5 324.179688 12.578125 323.367188 12.738281 322.5625 C 12.898438 321.757812 13.136719 320.976562 13.453125 320.214844 C 13.765625 319.457031 14.152344 318.738281 14.605469 318.054688 C 15.0625 317.371094 15.582031 316.742188 16.160156 316.160156 C 16.742188 315.582031 17.371094 315.0625 18.054688 314.605469 C 18.738281 314.152344 19.457031 313.765625 20.214844 313.453125 C 20.976562 313.136719 21.757812 312.898438 22.5625 312.738281 C 23.367188 312.578125 24.179688 312.5 25 312.5 C 25.820312 312.5 26.632812 312.578125 27.4375 312.738281 C 28.242188 312.898438 29.023438 313.136719 29.785156 313.453125 C 30.542969 313.765625 31.261719 314.152344 31.945312 314.605469 C 32.628906 315.0625 33.257812 315.582031 33.839844 316.160156 C 34.417969 316.742188 34.9375 317.371094 35.394531 318.054688 C 35.847656 318.738281 36.234375 319.457031 36.546875 320.214844 C 36.863281 320.976562 37.101562 321.757812 37.261719 322.5625 C 37.421875 323.367188 37.5 324.179688 37.5 325 L 37.5 350 C 37.5 350.820312 37.421875 351.632812 37.261719 352.4375 C 37.101562 353.242188 36.863281 354.023438 36.546875 354.785156 C 36.234375 355.542969 35.847656 356.261719 35.394531 356.945312 C 34.9375 357.628906 34.417969 358.257812 33.839844 358.839844 C 33.257812 359.417969 32.628906 359.9375 31.945312 360.394531 C 31.261719 360.847656 30.542969 361.234375 29.785156 361.546875 C 29.023438 361.863281 28.242188 362.101562 27.4375 362.257812 C 26.632812 362.417969 25.820312 362.5 25 362.5 C 24.179688 362.5 23.367188 362.417969 22.5625 362.257812 C 21.757812 362.101562 20.976562 361.863281 20.214844 361.546875 C 19.457031 361.234375 18.738281 360.847656 18.054688 360.394531 C 17.371094 359.9375 16.742188 359.417969 16.160156 358.839844 C 15.582031 358.257812 15.0625 357.628906 14.605469 356.945312 C 14.152344 356.261719 13.765625 355.542969 13.453125 354.785156 C 13.136719 354.023438 12.898438 353.242188 12.738281 352.4375 C 12.578125 351.632812 12.5 350.820312 12.5 350 Z M 12.5 325 " fill-opacity="1" fill-rule="nonzero"/><path fill="#005022" d="M 87.5 300 L 100 300 L 100 375 L 87.5 375 Z M 87.5 300 " fill-opacity="1" fill-rule="nonzero"/><path fill="#005022" d="M 162.5 375 C 163.320312 375 164.136719 374.960938 164.949219 374.878906 C 165.765625 374.800781 166.574219 374.679688 167.378906 374.519531 C 168.179688 374.359375 168.972656 374.160156 169.757812 373.921875 C 170.539062 373.6875 171.3125 373.410156 172.066406 373.097656 C 172.824219 372.785156 173.5625 372.433594 174.285156 372.046875 C 175.007812 371.660156 175.707031 371.242188 176.390625 370.785156 C 177.070312 370.332031 177.726562 369.84375 178.359375 369.324219 C 178.992188 368.804688 179.597656 368.257812 180.175781 367.675781 C 180.757812 367.097656 181.304688 366.492188 181.824219 365.859375 C 182.34375 365.226562 182.832031 364.570312 183.285156 363.890625 C 183.742188 363.207031 184.160156 362.507812 184.546875 361.785156 C 184.933594 361.0625 185.285156 360.324219 185.597656 359.566406 C 185.910156 358.8125 186.1875 358.039062 186.421875 357.257812 C 186.660156 356.472656 186.859375 355.679688 187.019531 354.878906 C 187.179688 354.074219 187.300781 353.265625 187.378906 352.449219 C 187.460938 351.636719 187.5 350.820312 187.5 350 L 187.5 325 C 187.5 324.179688 187.460938 323.363281 187.378906 322.550781 C 187.300781 321.734375 187.179688 320.925781 187.019531 320.121094 C 186.859375 319.320312 186.660156 318.527344 186.421875 317.742188 C 186.1875 316.960938 185.910156 316.1875 185.597656 315.433594 C 185.285156 314.675781 184.933594 313.9375 184.546875 313.214844 C 184.160156 312.492188 183.742188 311.792969 183.285156 311.109375 C 182.832031 310.429688 182.34375 309.773438 181.824219 309.140625 C 181.304688 308.507812 180.757812 307.902344 180.175781 307.324219 C 179.597656 306.742188 178.992188 306.195312 178.359375 305.675781 C 177.726562 305.15625 177.070312 304.667969 176.390625 304.214844 C 175.707031 303.757812 175.007812 303.339844 174.285156 302.953125 C 173.5625 302.566406 172.824219 302.214844 172.066406 301.902344 C 171.3125 301.589844 170.539062 301.3125 169.757812 301.078125 C 168.972656 300.839844 168.179688 300.640625 167.378906 300.480469 C 166.574219 300.320312 165.765625 300.199219 164.949219 300.121094 C 164.136719 300.039062 163.320312 300 162.5 300 C 161.679688 300 160.863281 300.039062 160.050781 300.121094 C 159.234375 300.199219 158.425781 300.320312 157.621094 300.480469 C 156.820312 300.640625 156.027344 300.839844 155.242188 301.078125 C 154.460938 301.3125 153.6875 301.589844 152.933594 301.902344 C 152.175781 302.214844 151.4375 302.566406 150.714844 302.953125 C 149.992188 303.339844 149.292969 303.757812 148.609375 304.214844 C 147.929688 304.667969 147.273438 305.15625 146.640625 305.675781 C 146.007812 306.195312 145.402344 306.742188 144.824219 307.324219 C 144.242188 307.902344 143.695312 308.507812 143.175781 309.140625 C 142.65625 309.773438 142.167969 310.429688 141.714844 311.109375 C 141.257812 311.792969 140.839844 312.492188 140.453125 313.214844 C 140.066406 313.9375 139.714844 314.675781 139.402344 315.433594 C 139.089844 316.1875 138.8125 316.960938 138.578125 317.742188 C 138.339844 318.527344 138.140625 319.320312 137.980469 320.121094 C 137.820312 320.925781 137.699219 321.734375 137.621094 322.550781 C 137.539062 323.363281 137.5 324.179688 137.5 325 L 137.5 350 C 137.5 350.820312 137.539062 351.636719 137.621094 352.449219 C 137.699219 353.265625 137.820312 354.074219 137.980469 354.878906 C 138.140625 355.679688 138.339844 356.472656 138.578125 357.257812 C 138.8125 358.039062 139.089844 358.8125 139.402344 359.566406 C 139.714844 360.324219 140.066406 361.0625 140.453125 361.785156 C 140.839844 362.507812 141.257812 363.207031 141.714844 363.890625 C 142.167969 364.570312 142.65625 365.226562 143.175781 365.859375 C 143.695312 366.492188 144.242188 367.097656 144.824219 367.675781 C 145.402344 368.257812 146.007812 368.804688 146.640625 369.324219 C 147.273438 369.84375 147.929688 370.332031 148.609375 370.785156 C 149.292969 371.242188 149.992188 371.660156 150.714844 372.046875 C 151.4375 372.433594 152.175781 372.785156 152.933594 373.097656 C 153.6875 373.410156 154.460938 373.6875 155.242188 373.921875 C 156.027344 374.160156 156.820312 374.359375 157.621094 374.519531 C 158.425781 374.679688 159.234375 374.800781 160.050781 374.878906 C 160.863281 374.960938 161.679688 375 162.5 375 Z M 150 325 C 150 324.179688 150.078125 323.367188 150.238281 322.5625 C 150.398438 321.757812 150.636719 320.976562 150.953125 320.214844 C 151.265625 319.457031 151.652344 318.738281 152.105469 318.054688 C 152.5625 317.371094 153.082031 316.742188 153.660156 316.160156 C 154.242188 315.582031 154.871094 315.0625 155.554688 314.605469 C 156.238281 314.152344 156.957031 313.765625 157.714844 313.453125 C 158.476562 313.136719 159.257812 312.898438 160.0625 312.738281 C 160.867188 312.578125 161.679688 312.5 162.5 312.5 C 163.320312 312.5 164.132812 312.578125 164.9375 312.738281 C 165.742188 312.898438 166.523438 313.136719 167.285156 313.453125 C 168.042969 313.765625 168.761719 314.152344 169.445312 314.605469 C 170.128906 315.0625 170.757812 315.582031 171.339844 316.160156 C 171.917969 316.742188 172.4375 317.371094 172.894531 318.054688 C 173.347656 318.738281 173.734375 319.457031 174.046875 320.214844 C 174.363281 320.976562 174.601562 321.757812 174.761719 322.5625 C 174.917969 323.367188 175 324.179688 175 325 L 175 350 C 175 350.820312 174.917969 351.632812 174.761719 352.4375 C 174.601562 353.242188 174.363281 354.023438 174.046875 354.785156 C 173.734375 355.542969 173.347656 356.261719 172.894531 356.945312 C 172.4375 357.628906 171.917969 358.257812 171.339844 358.839844 C 170.757812 359.417969 170.128906 359.9375 169.445312 360.394531 C 168.761719 360.847656 168.042969 361.234375 167.285156 361.546875 C 166.523438 361.863281 165.742188 362.101562 164.9375 362.257812 C 164.132812 362.417969 163.320312 362.5 162.5 362.5 C 161.679688 362.5 160.867188 362.417969 160.0625 362.257812 C 159.257812 362.101562 158.476562 361.863281 157.714844 361.546875 C 156.957031 361.234375 156.238281 360.847656 155.554688 360.394531 C 154.871094 359.9375 154.242188 359.417969 153.660156 358.839844 C 153.082031 358.257812 152.5625 357.628906 152.105469 356.945312 C 151.652344 356.261719 151.265625 355.542969 150.953125 354.785156 C 150.636719 354.023438 150.398438 353.242188 150.238281 352.4375 C 150.078125 351.632812 150 350.820312 150 350 Z M 150 325 " fill-opacity="1" fill-rule="nonzero"/><path fill="#005022" d="M 225 300 L 237.5 300 L 237.5 375 L 225 375 Z M 225 300 " fill-opacity="1" fill-rule="nonzero"/><path fill="#005022" d="M 362.5 300 L 375 300 L 375 375 L 362.5 375 Z M 362.5 300 " fill-opacity="1" fill-rule="nonzero"/><path fill="#005022" d="M 300 375 C 300.820312 375 301.636719 374.960938 302.449219 374.878906 C 303.265625 374.800781 304.074219 374.679688 304.878906 374.519531 C 305.679688 374.359375 306.472656 374.160156 307.257812 373.921875 C 308.039062 373.6875 308.8125 373.410156 309.566406 373.097656 C 310.324219 372.785156 311.0625 372.433594 311.785156 372.046875 C 312.507812 371.660156 313.207031 371.242188 313.890625 370.785156 C 314.570312 370.332031 315.226562 369.84375 315.859375 369.324219 C 316.492188 368.804688 317.097656 368.257812 317.675781 367.675781 C 318.257812 367.097656 318.804688 366.492188 319.324219 365.859375 C 319.84375 365.226562 320.332031 364.570312 320.785156 363.890625 C 321.242188 363.207031 321.660156 362.507812 322.046875 361.785156 C 322.433594 361.0625 322.785156 360.324219 323.097656 359.566406 C 323.410156 358.8125 323.6875 358.039062 323.921875 357.257812 C 324.160156 356.472656 324.359375 355.679688 324.519531 354.878906 C 324.679688 354.074219 324.800781 353.265625 324.878906 352.449219 C 324.960938 351.636719 325 350.820312 325 350 L 325 325 C 325 324.179688 324.960938 323.363281 324.878906 322.550781 C 324.800781 321.734375 324.679688 320.925781 324.519531 320.121094 C 324.359375 319.320312 324.160156 318.527344 323.921875 317.742188 C 323.6875 316.960938 323.410156 316.1875 323.097656 315.433594 C 322.785156 314.675781 322.433594 313.9375 322.046875 313.214844 C 321.660156 312.492188 321.242188 311.792969 320.785156 311.109375 C 320.332031 310.429688 319.84375 309.773438 319.324219 309.140625 C 318.804688 308.507812 318.257812 307.902344 317.675781 307.324219 C 317.097656 306.742188 316.492188 306.195312 315.859375 305.675781 C 315.226562 305.15625 314.570312 304.667969 313.890625 304.214844 C 313.207031 303.757812 312.507812 303.339844 311.785156 302.953125 C 311.0625 302.566406 310.324219 302.214844 309.566406 301.902344 C 308.8125 301.589844 308.039062 301.3125 307.257812 301.078125 C 306.472656 300.839844 305.679688 300.640625 304.878906 300.480469 C 304.074219 300.320312 303.265625 300.199219 302.449219 300.121094 C 301.636719 300.039062 300.820312 300 300 300 C 299.179688 300 298.363281 300.039062 297.550781 300.121094 C 296.734375 300.199219 295.925781 300.320312 295.121094 300.480469 C 294.320312 300.640625 293.527344 300.839844 292.742188 301.078125 C 291.960938 301.3125 291.1875 301.589844 290.433594 301.902344 C 289.675781 302.214844 288.9375 302.566406 288.214844 302.953125 C 287.492188 303.339844 286.792969 303.757812 286.109375 304.214844 C 285.429688 304.667969 284.773438 305.15625 284.140625 305.675781 C 283.507812 306.195312 282.902344 306.742188 282.324219 307.324219 C 281.742188 307.902344 281.195312 308.507812 280.675781 309.140625 C 280.15625 309.773438 279.667969 310.429688 279.214844 311.109375 C 278.757812 311.792969 278.339844 312.492188 277.953125 313.214844 C 277.566406 313.9375 277.214844 314.675781 276.902344 315.433594 C 276.589844 316.1875 276.3125 316.960938 276.078125 317.742188 C 275.839844 318.527344 275.640625 319.320312 275.480469 320.121094 C 275.320312 320.925781 275.199219 321.734375 275.121094 322.550781 C 275.039062 323.363281 275 324.179688 275 325 L 275 350 C 275 350.820312 275.039062 351.636719 275.121094 352.449219 C 275.199219 353.265625 275.320312 354.074219 275.480469 354.878906 C 275.640625 355.679688 275.839844 356.472656 276.078125 357.257812 C 276.3125 358.039062 276.589844 358.8125 276.902344 359.566406 C 277.214844 360.324219 277.566406 361.0625 277.953125 361.785156 C 278.339844 362.507812 278.757812 363.207031 279.214844 363.890625 C 279.667969 364.570312 280.15625 365.226562 280.675781 365.859375 C 281.195312 366.492188 281.742188 367.097656 282.324219 367.675781 C 282.902344 368.257812 283.507812 368.804688 284.140625 369.324219 C 284.773438 369.84375 285.429688 370.332031 286.109375 370.785156 C 286.792969 371.242188 287.492188 371.660156 288.214844 372.046875 C 288.9375 372.433594 289.675781 372.785156 290.433594 373.097656 C 291.1875 373.410156 291.960938 373.6875 292.742188 373.921875 C 293.527344 374.160156 294.320312 374.359375 295.121094 374.519531 C 295.925781 374.679688 296.734375 374.800781 297.550781 374.878906 C 298.363281 374.960938 299.179688 375 300 375 Z M 287.5 325 C 287.5 324.179688 287.578125 323.367188 287.738281 322.5625 C 287.898438 321.757812 288.136719 320.976562 288.453125 320.214844 C 288.765625 319.457031 289.152344 318.738281 289.605469 318.054688 C 290.0625 317.371094 290.582031 316.742188 291.160156 316.160156 C 291.742188 315.582031 292.371094 315.0625 293.054688 314.605469 C 293.738281 314.152344 294.457031 313.765625 295.214844 313.453125 C 295.976562 313.136719 296.757812 312.898438 297.5625 312.738281 C 298.367188 312.578125 299.179688 312.5 300 312.5 C 300.820312 312.5 301.632812 312.578125 302.4375 312.738281 C 303.242188 312.898438 304.023438 313.136719 304.785156 313.453125 C 305.542969 313.765625 306.261719 314.152344 306.945312 314.605469 C 307.628906 315.0625 308.257812 315.582031 308.839844 316.160156 C 309.417969 316.742188 309.9375 317.371094 310.394531 318.054688 C 310.847656 318.738281 311.234375 319.457031 311.546875 320.214844 C 311.863281 320.976562 312.097656 321.757812 312.257812 322.5625 C 312.417969 323.367188 312.5 324.179688 312.5 325 L 312.5 350 C 312.5 350.820312 312.417969 351.632812 312.257812 352.4375 C 312.101562 353.242188 311.863281 354.023438 311.546875 354.785156 C 311.234375 355.542969 310.847656 356.261719 310.394531 356.945312 C 309.9375 357.628906 309.417969 358.257812 308.839844 358.839844 C 308.257812 359.417969 307.628906 359.9375 306.945312 360.394531 C 306.261719 360.847656 305.542969 361.234375 304.785156 361.546875 C 304.023438 361.863281 303.242188 362.101562 302.4375 362.257812 C 301.632812 362.417969 300.820312 362.5 300 362.5 C 299.179688 362.5 298.367188 362.417969 297.5625 362.257812 C 296.757812 362.101562 295.976562 361.863281 295.214844 361.546875 C 294.457031 361.234375 293.738281 360.847656 293.054688 360.394531 C 292.371094 359.9375 291.742188 359.417969 291.160156 358.839844 C 290.582031 358.257812 290.0625 357.628906 289.605469 356.945312 C 289.152344 356.261719 288.765625 355.542969 288.453125 354.785156 C 288.136719 354.023438 287.898438 353.242188 287.738281 352.4375 C 287.578125 351.632812 287.5 350.820312 287.5 350 Z M 287.5 325 " fill-opacity="1" fill-rule="nonzero"/></svg>