<svg xmlns="http://www.w3.org/2000/svg" xmlns:xlink="http://www.w3.org/1999/xlink" width="500" zoomAndPan="magnify" viewBox="0 0 375 374.999991" height="500" preserveAspectRatio="xMidYMid meet" version="1.0"><defs><clipPath id="cfc47b95a2"><path d="M 286 206 L 374 206 L 374 372.066406 L 286 372.066406 Z M 286 206 " clip-rule="nonzero"/></clipPath><clipPath id="0285344b11"><path d="M 33 3.066406 L 200 3.066406 L 200 78 L 33 78 Z M 33 3.066406 " clip-rule="nonzero"/></clipPath></defs><g clip-path="url(#cfc47b95a2)"><path fill="#3d3d3d" d="M 372.84375 330.851562 L 337.324219 206.496094 L 330.660156 228.402344 L 338.0625 254.3125 L 322.78125 254.3125 L 318.996094 266.734375 L 341.609375 266.734375 L 360.894531 334.25 C 360.976562 334.523438 361.039062 334.796875 361.09375 335.070312 L 299.277344 335.070312 C 292.425781 335.070312 286.855469 340.640625 286.855469 347.492188 L 286.855469 359.917969 C 286.855469 366.769531 292.425781 372.339844 299.277344 372.339844 L 361.375 372.339844 C 368.222656 372.339844 373.792969 366.769531 373.792969 359.917969 L 373.792969 337.679688 C 373.792969 335.378906 373.46875 333.085938 372.84375 330.851562 Z M 372.84375 330.851562 " fill-opacity="1" fill-rule="nonzero"/></g><path fill="#3d3d3d" d="M 1.207031 136.273438 C 1.207031 143.125 6.777344 148.699219 13.625 148.699219 L 13.625 123.851562 C 6.777344 123.851562 1.207031 129.429688 1.207031 136.273438 Z M 1.207031 136.273438 " fill-opacity="1" fill-rule="nonzero"/><path fill="#3d3d3d" d="M 23.675781 56.945312 L 22.953125 57.238281 C 9.746094 62.519531 1.207031 75.136719 1.207031 89.375 C 1.207031 94.714844 2.46875 100.070312 4.859375 104.847656 L 8.4375 111.996094 C 10.113281 111.636719 11.84375 111.433594 13.625 111.433594 L 14.125 111.433594 C 16.210938 96.957031 25.417969 84.792969 38.097656 78.59375 Z M 23.675781 56.945312 " fill-opacity="1" fill-rule="nonzero"/><path fill="#3d3d3d" d="M 81.933594 173.546875 C 85.363281 173.546875 88.144531 170.765625 88.144531 167.335938 L 88.144531 130.0625 C 88.144531 126.632812 85.363281 123.851562 81.933594 123.851562 L 32.257812 123.851562 C 28.828125 123.851562 26.046875 126.632812 26.046875 130.0625 L 26.046875 167.335938 C 26.046875 170.765625 28.828125 173.546875 32.257812 173.546875 Z M 33.566406 150.824219 C 38.050781 141.851562 47.066406 136.273438 57.09375 136.273438 C 67.125 136.273438 76.140625 141.847656 80.625 150.824219 L 81.277344 152.132812 L 70.167969 157.695312 L 69.515625 156.382812 C 67.148438 151.644531 62.390625 148.707031 57.09375 148.707031 C 51.796875 148.707031 47.042969 151.648438 44.675781 156.382812 L 44.023438 157.695312 L 32.914062 152.132812 Z M 33.566406 150.824219 " fill-opacity="1" fill-rule="nonzero"/><path fill="#3d3d3d" d="M 185.371094 185.492188 C 184.054688 185.792969 182.699219 185.972656 181.289062 185.972656 L 131.613281 185.972656 C 121.339844 185.972656 112.984375 177.609375 112.984375 167.335938 L 112.984375 148.699219 L 100.5625 148.699219 L 100.5625 167.335938 C 100.5625 177.609375 92.207031 185.972656 81.933594 185.972656 L 32.257812 185.972656 C 30.851562 185.972656 29.492188 185.785156 28.175781 185.492188 C 36.449219 221.292969 68.507812 248.09375 106.773438 248.09375 C 145.039062 248.09375 177.097656 221.292969 185.371094 185.492188 Z M 88.144531 210.820312 L 117.726562 210.820312 C 123.925781 210.820312 129.5 207.371094 132.269531 201.832031 L 143.378906 207.390625 C 138.488281 217.167969 128.65625 223.25 117.726562 223.25 L 88.144531 223.25 Z M 88.144531 210.820312 " fill-opacity="1" fill-rule="nonzero"/><path fill="#3d3d3d" d="M 112.984375 136.273438 L 112.984375 130.0625 C 112.984375 119.789062 121.339844 111.425781 131.613281 111.425781 L 181.289062 111.425781 C 183.285156 111.425781 185.171875 111.824219 186.972656 112.40625 C 184.46875 97.777344 171.78125 86.578125 156.453125 86.578125 L 57.09375 86.578125 C 41.769531 86.578125 29.078125 97.773438 26.574219 112.40625 C 28.375 111.824219 30.261719 111.425781 32.257812 111.425781 L 81.933594 111.425781 C 92.207031 111.425781 100.5625 119.789062 100.5625 130.0625 L 100.5625 136.273438 Z M 112.984375 136.273438 " fill-opacity="1" fill-rule="nonzero"/><g clip-path="url(#0285344b11)"><path fill="#3d3d3d" d="M 57.09375 74.152344 L 156.453125 74.152344 C 162.5625 74.152344 168.378906 75.433594 173.660156 77.726562 C 188.722656 69.984375 198.707031 54.921875 199.8125 38.023438 L 163.957031 44 L 158.164062 15.015625 L 120.90625 33.652344 L 114.796875 3.066406 L 69.515625 28.953125 L 69.515625 8.800781 C 52.78125 16.785156 39.621094 31.109375 33 48.546875 L 50.445312 74.71875 C 52.617188 74.382812 54.828125 74.152344 57.09375 74.152344 Z M 57.09375 74.152344 " fill-opacity="1" fill-rule="nonzero"/></g><path fill="#3d3d3d" d="M 199.917969 123.851562 L 199.917969 148.699219 C 206.769531 148.699219 212.339844 143.125 212.339844 136.273438 C 212.339844 129.421875 206.769531 123.851562 199.917969 123.851562 Z M 199.917969 123.851562 " fill-opacity="1" fill-rule="nonzero"/><path fill="#3d3d3d" d="M 185.359375 85.261719 C 192.804688 91.921875 197.933594 101.082031 199.421875 111.433594 L 199.917969 111.433594 C 202.148438 111.433594 204.265625 111.824219 206.320312 112.375 L 206.886719 111.527344 C 210.453125 106.171875 212.339844 99.941406 212.339844 93.511719 C 212.339844 84.273438 208.308594 75.453125 201.492188 69.339844 C 197.195312 75.550781 191.753906 80.972656 185.359375 85.261719 Z M 185.359375 85.261719 " fill-opacity="1" fill-rule="nonzero"/><path fill="#3d3d3d" d="M 131.613281 173.546875 L 181.289062 173.546875 C 184.71875 173.546875 187.5 170.765625 187.5 167.335938 L 187.5 130.0625 C 187.5 126.632812 184.71875 123.851562 181.289062 123.851562 L 131.613281 123.851562 C 128.183594 123.851562 125.402344 126.632812 125.402344 130.0625 L 125.402344 167.335938 C 125.402344 170.765625 128.183594 173.546875 131.613281 173.546875 Z M 132.921875 150.824219 C 137.40625 141.851562 146.421875 136.273438 156.453125 136.273438 C 166.480469 136.273438 175.496094 141.847656 179.980469 150.824219 L 180.632812 152.132812 L 169.523438 157.695312 L 168.871094 156.382812 C 166.503906 151.644531 161.75 148.707031 156.453125 148.707031 C 151.15625 148.707031 146.398438 151.648438 144.03125 156.382812 L 143.378906 157.695312 L 132.269531 152.132812 Z M 132.921875 150.824219 " fill-opacity="1" fill-rule="nonzero"/><path fill="#3d3d3d" d="M 132.816406 269.671875 L 148.234375 304.394531 L 161.574219 305.730469 C 158.152344 288.117188 146.507812 273.5625 130.875 266.050781 C 131.570312 267.226562 132.257812 268.40625 132.816406 269.671875 Z M 132.816406 269.671875 " fill-opacity="1" fill-rule="nonzero"/><path fill="#3d3d3d" d="M 198.914062 335.0625 C 196.472656 327.0625 189.535156 321.011719 180.792969 320.136719 L 145.050781 316.5625 L 108.113281 332.980469 C 121.726562 342.25 138.082031 347.488281 155.433594 347.488281 L 162.660156 347.488281 C 162.660156 340.636719 168.230469 335.0625 175.082031 335.0625 Z M 198.914062 335.0625 " fill-opacity="1" fill-rule="nonzero"/><path fill="#3d3d3d" d="M 121.464844 274.71875 C 117.632812 266.089844 109.058594 260.515625 99.621094 260.515625 C 86.441406 260.515625 75.71875 271.246094 75.71875 284.425781 L 75.71875 285.78125 C 75.71875 288.824219 76.296875 291.820312 77.425781 294.671875 C 81.996094 306.101562 88.859375 316.058594 97.320312 324.183594 L 135.828125 307.066406 Z M 121.464844 274.71875 " fill-opacity="1" fill-rule="nonzero"/><path fill="#3d3d3d" d="M 175.082031 347.488281 L 262.023438 347.488281 L 262.023438 359.910156 L 175.082031 359.910156 Z M 175.082031 347.488281 " fill-opacity="1" fill-rule="nonzero"/><path fill="#3d3d3d" d="M 189.320312 237.488281 L 166.300781 260.515625 L 189.320312 283.546875 L 198.101562 274.761719 L 183.859375 260.515625 L 198.101562 246.273438 Z M 189.320312 237.488281 " fill-opacity="1" fill-rule="nonzero"/><path fill="#3d3d3d" d="M 238.996094 246.273438 L 253.238281 260.515625 L 238.996094 274.761719 L 247.777344 283.546875 L 270.796875 260.515625 L 247.777344 237.488281 Z M 238.996094 246.273438 " fill-opacity="1" fill-rule="nonzero"/><path fill="#3d3d3d" d="M 200.371094 289.265625 L 225.207031 227.144531 L 236.738281 231.761719 L 211.902344 293.878906 Z M 200.371094 289.265625 " fill-opacity="1" fill-rule="nonzero"/><path fill="#3d3d3d" d="M 325.914062 148.699219 L 331.933594 148.699219 C 339.714844 148.699219 346.222656 153.980469 348.246094 161.125 L 361.375 161.125 L 361.375 61.730469 L 324.113281 61.730469 L 324.113281 148.84375 C 324.710938 148.785156 325.308594 148.699219 325.914062 148.699219 Z M 336.535156 74.152344 L 348.953125 74.152344 L 348.953125 86.578125 L 336.535156 86.578125 Z M 336.535156 99.003906 L 348.953125 99.003906 L 348.953125 111.425781 L 336.535156 111.425781 Z M 336.535156 123.851562 L 348.953125 123.851562 L 348.953125 136.273438 L 336.535156 136.273438 Z M 336.535156 123.851562 " fill-opacity="1" fill-rule="nonzero"/><path fill="#3d3d3d" d="M 262.015625 36.878906 L 274.4375 36.878906 L 274.4375 49.304688 L 286.855469 49.304688 L 286.855469 36.878906 L 299.277344 36.878906 L 299.277344 49.304688 L 361.375 49.304688 L 361.375 24.457031 L 249.597656 24.457031 L 249.597656 49.304688 L 262.015625 49.304688 Z M 262.015625 36.878906 " fill-opacity="1" fill-rule="nonzero"/><path fill="#3d3d3d" d="M 309.628906 160.773438 C 310.113281 159.191406 310.832031 157.75 311.695312 156.421875 L 311.695312 61.730469 L 249.597656 61.730469 L 249.597656 161.125 L 309.523438 161.125 Z M 299.277344 136.273438 L 262.015625 136.273438 L 262.015625 123.851562 L 299.277344 123.851562 Z M 299.277344 111.425781 L 262.015625 111.425781 L 262.015625 99.003906 L 299.277344 99.003906 Z M 299.277344 86.578125 L 262.015625 86.578125 L 262.015625 74.152344 L 299.277344 74.152344 Z M 299.277344 86.578125 " fill-opacity="1" fill-rule="nonzero"/><path fill="#3d3d3d" d="M 295.675781 300.734375 L 336.335938 167.066406 C 336.464844 166.640625 336.535156 166.1875 336.535156 165.734375 C 336.535156 163.191406 334.472656 161.128906 331.933594 161.128906 L 325.914062 161.128906 C 323.878906 161.128906 322.109375 162.441406 321.507812 164.398438 L 280.84375 298.0625 C 280.714844 298.492188 280.644531 298.945312 280.644531 299.398438 C 280.644531 301.941406 282.707031 304.003906 285.246094 304.003906 L 291.265625 304.003906 C 293.300781 304.003906 295.070312 302.691406 295.675781 300.734375 Z M 295.675781 300.734375 " fill-opacity="1" fill-rule="nonzero"/></svg>