<svg xmlns="http://www.w3.org/2000/svg" xmlns:xlink="http://www.w3.org/1999/xlink" width="500" zoomAndPan="magnify" viewBox="0 0 375 374.999991" height="500" preserveAspectRatio="xMidYMid meet" version="1.0"><defs><g/><clipPath id="f0af087580"><path d="M 0 136.242188 L 375 136.242188 L 375 248 L 0 248 Z M 0 136.242188 " clip-rule="nonzero"/></clipPath><clipPath id="13c55471c8"><path d="M 17.25 136.242188 L 357.75 136.242188 C 362.324219 136.242188 366.710938 138.058594 369.949219 141.296875 C 373.183594 144.53125 375 148.917969 375 153.492188 L 375 230.75 C 375 235.324219 373.183594 239.714844 369.949219 242.949219 C 366.710938 246.183594 362.324219 248 357.75 248 L 17.25 248 C 12.675781 248 8.289062 246.183594 5.050781 242.949219 C 1.816406 239.714844 0 235.324219 0 230.75 L 0 153.492188 C 0 148.917969 1.816406 144.53125 5.050781 141.296875 C 8.289062 138.058594 12.675781 136.242188 17.25 136.242188 " clip-rule="nonzero"/></clipPath><clipPath id="b8c6a6362a"><path d="M 0 136.242188 L 151.5 136.242188 L 151.5 211.992188 L 0 211.992188 Z M 0 136.242188 " clip-rule="nonzero"/></clipPath></defs><g clip-path="url(#f0af087580)"><g clip-path="url(#13c55471c8)"><path fill="#3d3d3d" d="M 0 136.242188 L 374.414062 136.242188 L 374.414062 248.742188 L 0 248.742188 Z M 0 136.242188 " fill-opacity="1" fill-rule="nonzero"/></g></g><g clip-path="url(#b8c6a6362a)"><path fill="#bafdff" d="M 0 98.246094 L 151.5 98.246094 L 151.5 249.746094 L 0 249.746094 Z M 0 98.246094 " fill-opacity="1" fill-rule="nonzero"/></g><g fill="#3d3d3d" fill-opacity="1"><g transform="translate(11.823503, 196.121222)"><g><path d="M 66.6875 -45.648438 L 56.035156 -45.648438 L 48.558594 -7.742188 L 41.679688 -44.988281 L 26.925781 -44.988281 L 19.847656 -8.070312 L 12.835938 -45.648438 L 1.71875 -45.648438 L 12.96875 0 L 26.792969 0 L 34.136719 -36.980469 L 41.019531 0 L 54.777344 0 Z M 66.6875 -45.648438 "/></g></g></g><g fill="#3d3d3d" fill-opacity="1"><g transform="translate(74.667974, 196.121222)"><g><path d="M 37.046875 -18.257812 C 37.046875 -27.652344 31.226562 -36.1875 19.980469 -36.1875 C 8.800781 -36.1875 1.71875 -28.117188 1.71875 -17.53125 C 1.71875 -5.09375 9.460938 0.925781 19.316406 0.925781 C 27.917969 0.925781 34.535156 -3.375 36.453125 -11.511719 L 26.199219 -11.511719 C 25.601562 -8.203125 23.15625 -6.21875 19.515625 -6.21875 C 15.613281 -6.21875 12.703125 -8.203125 12.105469 -14.953125 L 36.851562 -14.953125 C 36.980469 -16.207031 37.046875 -17.332031 37.046875 -18.257812 Z M 19.515625 -29.042969 C 23.355469 -29.042969 25.667969 -26.464844 26.265625 -21.5 L 12.371094 -21.5 C 13.230469 -26.726562 15.8125 -29.042969 19.515625 -29.042969 Z M 19.515625 -29.042969 "/></g></g></g><g fill="#3d3d3d" fill-opacity="1"><g transform="translate(110.257666, 196.121222)"><g><path d="M 26 -36.1875 C 22.425781 -36.1875 18.921875 -35.394531 16.9375 -33.871094 L 14.289062 -29.96875 L 14.289062 -48.625 L 3.902344 -48.625 L 3.902344 0 L 14.289062 0 L 14.289062 -4.632812 L 16.605469 -0.925781 C 18.390625 0.199219 21.898438 0.925781 24.808594 0.925781 C 33.871094 0.925781 41.613281 -5.691406 41.613281 -18.390625 C 41.613281 -28.777344 35.726562 -36.1875 26 -36.1875 Z M 22.359375 -6.21875 C 18.390625 -6.21875 14.289062 -8.863281 14.289062 -16.472656 L 14.289062 -18.0625 C 14.289062 -26.132812 17.929688 -29.042969 22.691406 -29.042969 C 27.585938 -29.042969 30.960938 -24.675781 30.960938 -17.730469 C 30.960938 -10.054688 27.390625 -6.21875 22.359375 -6.21875 Z M 22.359375 -6.21875 "/></g></g></g><g fill="#bafdff" fill-opacity="1"><g transform="translate(150.268806, 196.121222)"><g><path d="M 25.800781 -46.574219 C 13.230469 -46.574219 3.441406 -37.910156 3.441406 -22.558594 C 3.441406 -7.609375 12.703125 0.925781 25.207031 0.925781 C 36.785156 0.925781 44.65625 -5.09375 45.714844 -15.414062 L 45.78125 -16.078125 L 35.394531 -16.078125 L 35.261719 -15.414062 C 34.203125 -9.988281 30.960938 -6.75 25.601562 -6.75 C 19.382812 -6.75 14.355469 -11.710938 14.355469 -23.15625 C 14.355469 -33.277344 19.054688 -38.902344 25.667969 -38.902344 C 31.160156 -38.902344 34.402344 -36.054688 35.460938 -30.761719 L 35.59375 -30.101562 L 45.980469 -30.101562 L 45.914062 -30.761719 C 44.988281 -39.761719 38.4375 -46.574219 25.800781 -46.574219 Z M 25.800781 -46.574219 "/></g></g></g><g fill="#bafdff" fill-opacity="1"><g transform="translate(194.921372, 196.121222)"><g><path d="M 37.910156 -26.464844 C 37.113281 -32.617188 32.8125 -36.1875 25.40625 -36.1875 C 22.097656 -36.1875 19.582031 -35.527344 17.199219 -33.9375 L 14.289062 -29.703125 L 14.289062 -48.957031 L 3.902344 -48.957031 L 3.902344 0 L 14.289062 0 L 14.289062 -16.339844 C 14.289062 -25.339844 17.332031 -28.976562 21.433594 -29.042969 C 25.46875 -29.042969 27.457031 -26.792969 27.71875 -23.222656 C 27.851562 -21.433594 27.851562 -19.648438 27.851562 -18.324219 L 27.851562 0 L 38.238281 0 L 38.238281 -19.914062 C 38.238281 -22.757812 38.171875 -24.675781 37.910156 -26.464844 Z M 37.910156 -26.464844 "/></g></g></g><g fill="#bafdff" fill-opacity="1"><g transform="translate(233.35562, 196.121222)"><g><path d="M 37.046875 -18.257812 C 37.046875 -27.652344 31.226562 -36.1875 19.980469 -36.1875 C 8.800781 -36.1875 1.71875 -28.117188 1.71875 -17.53125 C 1.71875 -5.09375 9.460938 0.925781 19.316406 0.925781 C 27.917969 0.925781 34.535156 -3.375 36.453125 -11.511719 L 26.199219 -11.511719 C 25.601562 -8.203125 23.15625 -6.21875 19.515625 -6.21875 C 15.613281 -6.21875 12.703125 -8.203125 12.105469 -14.953125 L 36.851562 -14.953125 C 36.980469 -16.207031 37.046875 -17.332031 37.046875 -18.257812 Z M 19.515625 -29.042969 C 23.355469 -29.042969 25.667969 -26.464844 26.265625 -21.5 L 12.371094 -21.5 C 13.230469 -26.726562 15.8125 -29.042969 19.515625 -29.042969 Z M 19.515625 -29.042969 "/></g></g></g><g fill="#bafdff" fill-opacity="1"><g transform="translate(268.945313, 196.121222)"><g><path d="M 37.046875 -18.257812 C 37.046875 -27.652344 31.226562 -36.1875 19.980469 -36.1875 C 8.800781 -36.1875 1.71875 -28.117188 1.71875 -17.53125 C 1.71875 -5.09375 9.460938 0.925781 19.316406 0.925781 C 27.917969 0.925781 34.535156 -3.375 36.453125 -11.511719 L 26.199219 -11.511719 C 25.601562 -8.203125 23.15625 -6.21875 19.515625 -6.21875 C 15.613281 -6.21875 12.703125 -8.203125 12.105469 -14.953125 L 36.851562 -14.953125 C 36.980469 -16.207031 37.046875 -17.332031 37.046875 -18.257812 Z M 19.515625 -29.042969 C 23.355469 -29.042969 25.667969 -26.464844 26.265625 -21.5 L 12.371094 -21.5 C 13.230469 -26.726562 15.8125 -29.042969 19.515625 -29.042969 Z M 19.515625 -29.042969 "/></g></g></g><g fill="#bafdff" fill-opacity="1"><g transform="translate(304.535005, 196.121222)"><g><path d="M 17.003906 -13.496094 L 27.257812 0 L 40.15625 0 L 24.675781 -18.988281 L 39.960938 -35.261719 L 27.652344 -35.261719 L 14.289062 -19.78125 L 14.289062 -48.625 L 3.902344 -48.625 L 3.902344 0 L 14.289062 0 L 14.289062 -10.519531 Z M 17.003906 -13.496094 "/></g></g></g><g fill="#ffffff" fill-opacity="1"><g transform="translate(37.500002, 234.19018)"><g><path d="M 15.832031 -11.5625 L 14.308594 -11.5625 L 11.746094 -1.273438 L 9.132812 -11.394531 L 7.1875 -11.394531 L 4.507812 -1.289062 L 2.078125 -11.5625 L 0.4375 -11.5625 L 3.484375 0 L 5.394531 0 L 8.109375 -9.96875 L 10.722656 0 L 12.617188 0 Z M 15.832031 -11.5625 "/></g></g></g><g fill="#ffffff" fill-opacity="1"><g transform="translate(52.604224, 234.19018)"><g><path d="M 8.527344 -4.691406 C 8.527344 -7.289062 7.171875 -9.113281 4.726562 -9.113281 C 2.296875 -9.113281 0.503906 -7.289062 0.503906 -4.40625 C 0.503906 -1.273438 2.226562 0.234375 4.539062 0.234375 C 6.367188 0.234375 8.058594 -0.71875 8.410156 -2.863281 L 6.902344 -2.863281 C 6.703125 -1.589844 5.765625 -0.871094 4.609375 -0.871094 C 3.300781 -0.871094 2.195312 -1.660156 2.0625 -4.003906 L 8.496094 -4.003906 C 8.527344 -4.324219 8.527344 -4.558594 8.527344 -4.691406 Z M 4.691406 -8.007812 C 6.148438 -8.007812 6.9375 -6.953125 7.070312 -5.109375 L 2.078125 -5.109375 C 2.246094 -7.003906 3.285156 -8.007812 4.691406 -8.007812 Z M 4.691406 -8.007812 "/></g></g></g><g fill="#ffffff" fill-opacity="1"><g transform="translate(60.959762, 234.19018)"><g><path d="M 5.695312 -9.113281 C 4.792969 -9.113281 3.855469 -8.828125 3.351562 -8.410156 L 2.679688 -7.457031 L 2.679688 -12.316406 L 1.238281 -12.316406 L 1.238281 0 L 2.679688 0 L 2.679688 -1.222656 L 3.265625 -0.351562 C 3.71875 0.015625 4.65625 0.234375 5.394531 0.234375 C 7.691406 0.234375 9.734375 -1.289062 9.734375 -4.574219 C 9.734375 -7.171875 8.292969 -9.113281 5.695312 -9.113281 Z M 5.394531 -0.871094 C 4.121094 -0.871094 2.679688 -1.742188 2.679688 -4.039062 L 2.679688 -4.523438 C 2.679688 -7.070312 4.003906 -8.007812 5.480469 -8.007812 C 7.253906 -8.007812 8.160156 -6.417969 8.160156 -4.40625 C 8.160156 -2.078125 6.953125 -0.871094 5.394531 -0.871094 Z M 5.394531 -0.871094 "/></g></g></g><g fill="#ffffff" fill-opacity="1"><g transform="translate(70.353556, 234.19018)"><g><path d="M 1.960938 -11.796875 C 1.441406 -11.796875 1.039062 -11.394531 1.039062 -10.875 C 1.039062 -10.355469 1.441406 -9.953125 1.960938 -9.953125 C 2.480469 -9.953125 2.882812 -10.355469 2.882812 -10.875 C 2.882812 -11.394531 2.480469 -11.796875 1.960938 -11.796875 Z M 2.679688 0 L 2.679688 -8.878906 L 1.238281 -8.878906 L 1.238281 0 Z M 2.679688 0 "/></g></g></g><g fill="#ffffff" fill-opacity="1"><g transform="translate(73.501058, 234.19018)"><g><path d="M 3.820312 -9.113281 C 1.992188 -9.113281 0.753906 -8.144531 0.753906 -6.519531 C 0.753906 -4.960938 2.027344 -4.304688 3.617188 -3.871094 C 5.109375 -3.46875 5.714844 -3.015625 5.714844 -2.160156 C 5.714844 -1.308594 4.941406 -0.871094 3.988281 -0.871094 C 2.964844 -0.871094 2.144531 -1.324219 1.910156 -2.613281 L 0.402344 -2.613281 C 0.671875 -0.601562 2.0625 0.234375 3.886719 0.234375 C 5.765625 0.234375 7.1875 -0.601562 7.1875 -2.277344 C 7.1875 -3.785156 6.214844 -4.589844 4.171875 -5.128906 C 2.964844 -5.445312 2.226562 -5.796875 2.226562 -6.683594 C 2.226562 -7.457031 2.699219 -8.007812 3.703125 -8.007812 C 4.742188 -8.007812 5.378906 -7.390625 5.578125 -6.351562 L 7.085938 -6.351562 C 6.902344 -7.976562 5.8125 -9.113281 3.820312 -9.113281 Z M 3.820312 -9.113281 "/></g></g></g><g fill="#ffffff" fill-opacity="1"><g transform="translate(80.349443, 234.19018)"><g><path d="M 2.964844 -7.707031 L 4.625 -7.707031 L 4.625 -8.8125 L 2.964844 -8.8125 L 2.964844 -10.875 L 1.523438 -10.875 L 1.523438 -8.8125 L 0.335938 -8.8125 L 0.335938 -7.707031 L 1.523438 -7.707031 L 1.523438 -2.53125 C 1.523438 -2.027344 1.523438 -1.660156 1.542969 -1.425781 C 1.625 -0.316406 2.195312 0.132812 3.300781 0.132812 C 3.703125 0.132812 4.105469 0.117188 4.523438 0.0507812 L 4.523438 -1.003906 C 3.402344 -0.871094 3.050781 -1.054688 2.980469 -1.910156 C 2.964844 -2.144531 2.964844 -2.296875 2.964844 -2.597656 Z M 2.964844 -7.707031 "/></g></g></g><g fill="#ffffff" fill-opacity="1"><g transform="translate(84.7529, 234.19018)"><g><path d="M 8.527344 -4.691406 C 8.527344 -7.289062 7.171875 -9.113281 4.726562 -9.113281 C 2.296875 -9.113281 0.503906 -7.289062 0.503906 -4.40625 C 0.503906 -1.273438 2.226562 0.234375 4.539062 0.234375 C 6.367188 0.234375 8.058594 -0.71875 8.410156 -2.863281 L 6.902344 -2.863281 C 6.703125 -1.589844 5.765625 -0.871094 4.609375 -0.871094 C 3.300781 -0.871094 2.195312 -1.660156 2.0625 -4.003906 L 8.496094 -4.003906 C 8.527344 -4.324219 8.527344 -4.558594 8.527344 -4.691406 Z M 4.691406 -8.007812 C 6.148438 -8.007812 6.9375 -6.953125 7.070312 -5.109375 L 2.078125 -5.109375 C 2.246094 -7.003906 3.285156 -8.007812 4.691406 -8.007812 Z M 4.691406 -8.007812 "/></g></g></g><g fill="#ffffff" fill-opacity="1"><g transform="translate(93.108437, 234.19018)"><g/></g></g><g fill="#ffffff" fill-opacity="1"><g transform="translate(95.88752, 234.19018)"><g><path d="M 6.667969 -11.492188 C 6.082031 -11.5625 5.8125 -11.5625 5.195312 -11.5625 L 1.675781 -11.5625 L 1.675781 0 L 5.109375 0 C 5.730469 0 6 0 6.585938 -0.0664062 C 9.265625 -0.402344 11.242188 -2.511719 11.242188 -5.914062 C 11.242188 -9.367188 9.347656 -11.160156 6.667969 -11.492188 Z M 6.433594 -1.257812 C 6.066406 -1.191406 5.628906 -1.171875 5.027344 -1.171875 L 3.117188 -1.171875 L 3.117188 -10.386719 L 5.109375 -10.386719 C 5.714844 -10.386719 6.148438 -10.371094 6.519531 -10.304688 C 8.476562 -9.984375 9.667969 -8.476562 9.667969 -5.914062 C 9.667969 -3.183594 8.394531 -1.574219 6.433594 -1.257812 Z M 6.433594 -1.257812 "/></g></g></g><g fill="#ffffff" fill-opacity="1"><g transform="translate(106.922428, 234.19018)"><g><path d="M 8.527344 -4.691406 C 8.527344 -7.289062 7.171875 -9.113281 4.726562 -9.113281 C 2.296875 -9.113281 0.503906 -7.289062 0.503906 -4.40625 C 0.503906 -1.273438 2.226562 0.234375 4.539062 0.234375 C 6.367188 0.234375 8.058594 -0.71875 8.410156 -2.863281 L 6.902344 -2.863281 C 6.703125 -1.589844 5.765625 -0.871094 4.609375 -0.871094 C 3.300781 -0.871094 2.195312 -1.660156 2.0625 -4.003906 L 8.496094 -4.003906 C 8.527344 -4.324219 8.527344 -4.558594 8.527344 -4.691406 Z M 4.691406 -8.007812 C 6.148438 -8.007812 6.9375 -6.953125 7.070312 -5.109375 L 2.078125 -5.109375 C 2.246094 -7.003906 3.285156 -8.007812 4.691406 -8.007812 Z M 4.691406 -8.007812 "/></g></g></g><g fill="#ffffff" fill-opacity="1"><g transform="translate(115.277965, 234.19018)"><g><path d="M 8.511719 -8.878906 L 6.988281 -8.878906 L 4.324219 -1.054688 L 1.609375 -8.878906 L 0.015625 -8.878906 L 3.382812 0 L 5.144531 0 Z M 8.511719 -8.878906 "/></g></g></g><g fill="#ffffff" fill-opacity="1"><g transform="translate(123.047392, 234.19018)"><g><path d="M 8.527344 -4.691406 C 8.527344 -7.289062 7.171875 -9.113281 4.726562 -9.113281 C 2.296875 -9.113281 0.503906 -7.289062 0.503906 -4.40625 C 0.503906 -1.273438 2.226562 0.234375 4.539062 0.234375 C 6.367188 0.234375 8.058594 -0.71875 8.410156 -2.863281 L 6.902344 -2.863281 C 6.703125 -1.589844 5.765625 -0.871094 4.609375 -0.871094 C 3.300781 -0.871094 2.195312 -1.660156 2.0625 -4.003906 L 8.496094 -4.003906 C 8.527344 -4.324219 8.527344 -4.558594 8.527344 -4.691406 Z M 4.691406 -8.007812 C 6.148438 -8.007812 6.9375 -6.953125 7.070312 -5.109375 L 2.078125 -5.109375 C 2.246094 -7.003906 3.285156 -8.007812 4.691406 -8.007812 Z M 4.691406 -8.007812 "/></g></g></g><g fill="#ffffff" fill-opacity="1"><g transform="translate(131.402929, 234.19018)"><g><path d="M 2.613281 -12.316406 L 1.171875 -12.316406 L 1.171875 -2.496094 C 1.171875 -2.011719 1.171875 -1.625 1.191406 -1.324219 C 1.238281 -0.199219 1.859375 0.0664062 2.699219 0.0664062 C 3.03125 0.0664062 3.402344 0.0507812 3.71875 0 L 3.71875 -1.039062 C 2.933594 -0.953125 2.664062 -1.140625 2.628906 -1.710938 C 2.613281 -1.992188 2.613281 -2.277344 2.613281 -2.546875 Z M 2.613281 -12.316406 "/></g></g></g><g fill="#ffffff" fill-opacity="1"><g transform="translate(134.701145, 234.19018)"><g><path d="M 4.910156 -9.113281 C 1.894531 -9.113281 0.503906 -6.953125 0.503906 -4.441406 C 0.503906 -1.945312 1.894531 0.234375 4.910156 0.234375 C 7.925781 0.234375 9.316406 -1.945312 9.316406 -4.441406 C 9.316406 -6.953125 7.925781 -9.113281 4.910156 -9.113281 Z M 4.910156 -0.871094 C 3.117188 -0.871094 2.078125 -2.363281 2.078125 -4.441406 C 2.078125 -6.535156 3.117188 -8.007812 4.910156 -8.007812 C 6.703125 -8.007812 7.742188 -6.535156 7.742188 -4.441406 C 7.742188 -2.363281 6.703125 -0.871094 4.910156 -0.871094 Z M 4.910156 -0.871094 "/></g></g></g><g fill="#ffffff" fill-opacity="1"><g transform="translate(143.676288, 234.19018)"><g><path d="M 5.695312 -9.113281 C 4.792969 -9.113281 3.855469 -8.828125 3.351562 -8.410156 L 2.679688 -7.457031 L 2.679688 -8.878906 L 1.238281 -8.878906 L 1.238281 3.285156 L 2.679688 3.285156 L 2.679688 -1.222656 L 3.265625 -0.351562 C 3.71875 0.015625 4.65625 0.234375 5.394531 0.234375 C 7.691406 0.234375 9.734375 -1.289062 9.734375 -4.574219 C 9.734375 -7.171875 8.292969 -9.113281 5.695312 -9.113281 Z M 5.394531 -0.871094 C 4.121094 -0.871094 2.679688 -1.742188 2.679688 -4.039062 L 2.679688 -4.523438 C 2.679688 -7.070312 4.003906 -8.007812 5.480469 -8.007812 C 7.253906 -8.007812 8.160156 -6.417969 8.160156 -4.40625 C 8.160156 -2.078125 6.953125 -0.871094 5.394531 -0.871094 Z M 5.394531 -0.871094 "/></g></g></g><g fill="#ffffff" fill-opacity="1"><g transform="translate(153.070078, 234.19018)"><g><path d="M 13.050781 -6.953125 C 12.851562 -8.175781 11.945312 -9.113281 10.355469 -9.113281 C 9.566406 -9.113281 8.929688 -8.964844 8.476562 -8.59375 L 7.691406 -7.457031 C 7.355469 -8.429688 6.484375 -9.113281 5.128906 -9.113281 C 4.339844 -9.113281 3.703125 -8.964844 3.25 -8.59375 L 2.679688 -7.589844 L 2.679688 -8.878906 L 1.238281 -8.878906 L 1.238281 0 L 2.679688 0 L 2.679688 -4.390625 C 2.679688 -7.085938 3.5 -7.976562 4.625 -7.976562 C 5.628906 -7.976562 6.265625 -7.488281 6.402344 -6.484375 C 6.449219 -6.03125 6.46875 -5.546875 6.46875 -4.757812 L 6.46875 0 L 7.910156 0 L 7.910156 -4.390625 C 7.910156 -7.085938 8.730469 -7.976562 9.851562 -7.976562 C 10.855469 -7.976562 11.492188 -7.488281 11.628906 -6.484375 C 11.679688 -6.03125 11.695312 -5.546875 11.695312 -4.757812 L 11.695312 0 L 13.136719 0 L 13.136719 -5.429688 C 13.136719 -6.148438 13.121094 -6.5 13.050781 -6.953125 Z M 13.050781 -6.953125 "/></g></g></g><g fill="#ffffff" fill-opacity="1"><g transform="translate(166.549924, 234.19018)"><g><path d="M 8.527344 -4.691406 C 8.527344 -7.289062 7.171875 -9.113281 4.726562 -9.113281 C 2.296875 -9.113281 0.503906 -7.289062 0.503906 -4.40625 C 0.503906 -1.273438 2.226562 0.234375 4.539062 0.234375 C 6.367188 0.234375 8.058594 -0.71875 8.410156 -2.863281 L 6.902344 -2.863281 C 6.703125 -1.589844 5.765625 -0.871094 4.609375 -0.871094 C 3.300781 -0.871094 2.195312 -1.660156 2.0625 -4.003906 L 8.496094 -4.003906 C 8.527344 -4.324219 8.527344 -4.558594 8.527344 -4.691406 Z M 4.691406 -8.007812 C 6.148438 -8.007812 6.9375 -6.953125 7.070312 -5.109375 L 2.078125 -5.109375 C 2.246094 -7.003906 3.285156 -8.007812 4.691406 -8.007812 Z M 4.691406 -8.007812 "/></g></g></g><g fill="#ffffff" fill-opacity="1"><g transform="translate(174.905461, 234.19018)"><g><path d="M 8.710938 -6.519531 C 8.578125 -8.074219 7.488281 -9.113281 5.546875 -9.113281 C 4.640625 -9.113281 3.988281 -8.964844 3.234375 -8.378906 L 2.679688 -7.355469 L 2.679688 -8.878906 L 1.238281 -8.878906 L 1.238281 0 L 2.679688 0 L 2.679688 -3.902344 C 2.679688 -6.9375 3.855469 -7.976562 5.246094 -7.976562 C 6.617188 -7.976562 7.1875 -7.203125 7.273438 -6.164062 C 7.304688 -5.714844 7.304688 -5.34375 7.304688 -4.890625 L 7.304688 0 L 8.746094 0 L 8.746094 -4.992188 C 8.746094 -5.714844 8.746094 -6.066406 8.710938 -6.519531 Z M 8.710938 -6.519531 "/></g></g></g><g fill="#ffffff" fill-opacity="1"><g transform="translate(183.997826, 234.19018)"><g><path d="M 2.964844 -7.707031 L 4.625 -7.707031 L 4.625 -8.8125 L 2.964844 -8.8125 L 2.964844 -10.875 L 1.523438 -10.875 L 1.523438 -8.8125 L 0.335938 -8.8125 L 0.335938 -7.707031 L 1.523438 -7.707031 L 1.523438 -2.53125 C 1.523438 -2.027344 1.523438 -1.660156 1.542969 -1.425781 C 1.625 -0.316406 2.195312 0.132812 3.300781 0.132812 C 3.703125 0.132812 4.105469 0.117188 4.523438 0.0507812 L 4.523438 -1.003906 C 3.402344 -0.871094 3.050781 -1.054688 2.980469 -1.910156 C 2.964844 -2.144531 2.964844 -2.296875 2.964844 -2.597656 Z M 2.964844 -7.707031 "/></g></g></g></svg>